<svg id="Grupo_82" data-name="Grupo 82" xmlns="http://www.w3.org/2000/svg" xmlns:xlink="http://www.w3.org/1999/xlink" width="14.83" height="14" viewBox="0 0 14.83 14">
  <defs>
    <clipPath id="clip-path">
      <rect id="Rectángulo_155" data-name="Rectángulo 155" width="14.83" height="14" fill="none"/>
    </clipPath>
  </defs>
  <g id="Grupo_81" data-name="Grupo 81" clip-path="url(#clip-path)">
    <path id="Trazado_39" data-name="Trazado 39" d="M7.418,14Q4.206,14,.995,14a.939.939,0,0,1-.976-.748,1.015,1.015,0,0,1,.138-.717q1.109-2.059,2.211-4.12Q4.473,4.492,6.576.57A.917.917,0,0,1,7.933.162a1.336,1.336,0,0,1,.385.457q2.03,3.783,4.045,7.575,1.169,2.194,2.338,4.388a.922.922,0,0,1-.421,1.331,1.247,1.247,0,0,1-.474.083Q10.612,14,7.418,14m.9-8.879a1,1,0,0,0-.95-1,.984.984,0,0,0-.913,1.027c.01.127.019.254.031.381q.17,1.931.341,3.861c.021.237.038.474.07.709a.5.5,0,0,0,.48.463.49.49,0,0,0,.493-.446c.016-.085.024-.172.032-.259q.116-1.307.231-2.614c.063-.716.125-1.431.185-2.12M6.75,11.833a.633.633,0,0,0,.641.637.642.642,0,0,0,.64-.643.65.65,0,0,0-.646-.641.64.64,0,0,0-.635.647" transform="translate(0 0)" fill="#0d1b3b"/>
    <path id="Trazado_40" data-name="Trazado 40" d="M187.052,119.15c-.06.688-.122,1.4-.185,2.12q-.115,1.307-.231,2.614c-.008.086-.016.173-.032.259a.49.49,0,0,1-.493.446.5.5,0,0,1-.48-.463c-.032-.235-.049-.473-.07-.709q-.171-1.931-.341-3.861c-.011-.127-.021-.254-.031-.381a.984.984,0,0,1,.913-1.027,1,1,0,0,1,.95,1" transform="translate(-178.732 -114.028)" fill="#fff"/>
    <path id="Trazado_41" data-name="Trazado 41" d="M193.631,321.561a.64.64,0,0,1,.635-.647.65.65,0,0,1,.646.641.642.642,0,0,1-.64.643.633.633,0,0,1-.641-.637" transform="translate(-186.881 -309.728)" fill="#fff"/>
  </g>
</svg>
