<svg id="Grupo_226" data-name="Grupo 226" xmlns="http://www.w3.org/2000/svg" xmlns:xlink="http://www.w3.org/1999/xlink" width="128.575" height="158.393" viewBox="0 0 128.575 158.393">
  <defs>
    <clipPath id="clip-path">
      <rect id="Rectángulo_272" data-name="Rectángulo 272" width="128.575" height="158.393" fill="none"/>
    </clipPath>
  </defs>
  <g id="Grupo_225" data-name="Grupo 225" clip-path="url(#clip-path)">
    <path id="Trazado_1135" data-name="Trazado 1135" d="M5.565,270.588a6.367,6.367,0,0,1-2.828-.617,5.182,5.182,0,0,1-2-1.654,4.121,4.121,0,0,1,.963-5.686,10.038,10.038,0,0,1,4.5-1.669l4.122-.6v-.632a2.8,2.8,0,0,0-.632-1.956,2.833,2.833,0,0,0-2.166-.692,3.206,3.206,0,0,0-1.76.436,2.687,2.687,0,0,0-1.008,1.159.766.766,0,0,1-.692.391H1.684a.64.64,0,0,1-.5-.181.684.684,0,0,1-.165-.481,3.069,3.069,0,0,1,.391-1.174,4.447,4.447,0,0,1,1.143-1.339,6.82,6.82,0,0,1,2.015-1.1,8.706,8.706,0,0,1,2.978-.451,9.614,9.614,0,0,1,3.2.466,5.534,5.534,0,0,1,2.091,1.249,4.739,4.739,0,0,1,1.143,1.835,6.824,6.824,0,0,1,.361,2.226v9.446a.718.718,0,0,1-.722.722H11.191a.682.682,0,0,1-.526-.21.722.722,0,0,1-.2-.511v-1.174a4.6,4.6,0,0,1-1.053,1.068,5.642,5.642,0,0,1-1.61.813,7.121,7.121,0,0,1-2.241.316m1.023-2.858a4.04,4.04,0,0,0,1.91-.451,3.209,3.209,0,0,0,1.354-1.4,5.128,5.128,0,0,0,.5-2.392v-.632l-3.008.481a6.471,6.471,0,0,0-2.647.872,1.757,1.757,0,0,0-.872,1.474,1.656,1.656,0,0,0,.406,1.128,2.431,2.431,0,0,0,1.037.692,3.91,3.91,0,0,0,1.324.225" transform="translate(0 -112.195)" fill="#00c997"/>
    <path id="Trazado_1136" data-name="Trazado 1136" d="M35.72,266.314a6.748,6.748,0,0,1-2.752-.526A5.207,5.207,0,0,1,31,264.3a6.908,6.908,0,0,1-1.2-2.271,10.658,10.658,0,0,1-.481-2.873q-.031-.542-.03-.978c0-.29.01-.616.03-.977a10.735,10.735,0,0,1,.466-2.8,6.753,6.753,0,0,1,1.2-2.271,5.417,5.417,0,0,1,1.986-1.519,6.576,6.576,0,0,1,2.752-.542,6.185,6.185,0,0,1,2.752.556,5.883,5.883,0,0,1,1.88,1.43v-6.679a.723.723,0,0,1,.2-.511.682.682,0,0,1,.526-.211h2.557a.719.719,0,0,1,.722.722v19.915a.718.718,0,0,1-.722.721H41.255a.681.681,0,0,1-.526-.21.723.723,0,0,1-.2-.511v-1.113a5.911,5.911,0,0,1-1.91,1.534,6.267,6.267,0,0,1-2.9.6m1.113-3.219a3.245,3.245,0,0,0,2.015-.572,3.409,3.409,0,0,0,1.113-1.459,5.233,5.233,0,0,0,.391-1.82q.03-.542.03-1.158t-.03-1.159a4.346,4.346,0,0,0-.421-1.73,3.523,3.523,0,0,0-1.143-1.369,3.838,3.838,0,0,0-3.956.015,3.136,3.136,0,0,0-1.068,1.459,6.839,6.839,0,0,0-.391,1.985q-.03.9,0,1.805a6.847,6.847,0,0,0,.391,1.986,3.135,3.135,0,0,0,1.068,1.459,3.246,3.246,0,0,0,2,.557" transform="translate(-12.917 -107.921)" fill="#00c997"/>
    <path id="Trazado_1137" data-name="Trazado 1137" d="M67.448,270.588a7.216,7.216,0,0,1-5.294-1.925,7.827,7.827,0,0,1-2.106-5.475q-.03-.3-.03-.767a7.046,7.046,0,0,1,.03-.737,8.948,8.948,0,0,1,1.038-3.911,6.334,6.334,0,0,1,2.542-2.542,7.853,7.853,0,0,1,3.821-.887,7.736,7.736,0,0,1,4.092,1.008,6.392,6.392,0,0,1,2.5,2.8,9.621,9.621,0,0,1,.842,4.137v.632a.7.7,0,0,1-.211.511.733.733,0,0,1-.541.211H64.139v.241a5.3,5.3,0,0,0,.406,1.94,3.354,3.354,0,0,0,1.113,1.429,2.887,2.887,0,0,0,1.759.542,3.337,3.337,0,0,0,2.347-.842,3.869,3.869,0,0,0,.511-.542,1.444,1.444,0,0,1,.436-.436,1.262,1.262,0,0,1,.5-.075H73.8a.705.705,0,0,1,.5.181.507.507,0,0,1,.165.451,2.527,2.527,0,0,1-.5,1.173,5.856,5.856,0,0,1-1.339,1.354,7.51,7.51,0,0,1-2.181,1.1,9.476,9.476,0,0,1-2.993.436m-3.309-9.476h6.648v-.09a4.972,4.972,0,0,0-.391-2.046,3.238,3.238,0,0,0-1.143-1.383,3.184,3.184,0,0,0-4.738,1.383,5.136,5.136,0,0,0-.376,2.046Z" transform="translate(-26.475 -112.195)" fill="#00c997"/>
    <path id="Trazado_1138" data-name="Trazado 1138" d="M90.936,266.014a.719.719,0,0,1-.722-.722V245.376a.718.718,0,0,1,.722-.721h2.5a.718.718,0,0,1,.722.721v19.915a.719.719,0,0,1-.722.722Z" transform="translate(-39.795 -107.922)" fill="#00c997"/>
    <path id="Trazado_1139" data-name="Trazado 1139" d="M106.007,270.588a6.365,6.365,0,0,1-2.828-.617,5.182,5.182,0,0,1-2-1.654,4.121,4.121,0,0,1,.963-5.686,10.038,10.038,0,0,1,4.5-1.669l4.121-.6v-.632a2.8,2.8,0,0,0-.632-1.956,2.834,2.834,0,0,0-2.166-.692,3.21,3.21,0,0,0-1.76.436,2.689,2.689,0,0,0-1.008,1.159.766.766,0,0,1-.692.391h-2.376a.64.64,0,0,1-.5-.181.684.684,0,0,1-.165-.481,3.076,3.076,0,0,1,.391-1.174A4.457,4.457,0,0,1,103,255.892a6.82,6.82,0,0,1,2.015-1.1,8.7,8.7,0,0,1,2.978-.451,9.614,9.614,0,0,1,3.2.466,5.534,5.534,0,0,1,2.091,1.249,4.739,4.739,0,0,1,1.143,1.835,6.824,6.824,0,0,1,.361,2.226v9.446a.718.718,0,0,1-.722.722h-2.437a.681.681,0,0,1-.526-.21.723.723,0,0,1-.2-.511v-1.174a4.582,4.582,0,0,1-1.052,1.068,5.641,5.641,0,0,1-1.61.813,7.126,7.126,0,0,1-2.241.316m1.023-2.858a4.04,4.04,0,0,0,1.91-.451,3.209,3.209,0,0,0,1.354-1.4,5.128,5.128,0,0,0,.5-2.392v-.632l-3.008.481a6.471,6.471,0,0,0-2.647.872,1.758,1.758,0,0,0-.873,1.474,1.659,1.659,0,0,0,.406,1.128,2.436,2.436,0,0,0,1.038.692,3.91,3.91,0,0,0,1.324.225" transform="translate(-44.307 -112.195)" fill="#00c997"/>
    <path id="Trazado_1140" data-name="Trazado 1140" d="M131.576,270.287a.719.719,0,0,1-.722-.722v-14.2a.718.718,0,0,1,.722-.721h2.467a.718.718,0,0,1,.722.721V256.6a6.12,6.12,0,0,1,5.024-2.257,6,6,0,0,1,3.189.828,5.5,5.5,0,0,1,2.091,2.331,8.137,8.137,0,0,1,.737,3.61v8.454a.719.719,0,0,1-.722.722h-2.647a.719.719,0,0,1-.722-.722v-8.273a4.052,4.052,0,0,0-.857-2.737,3.1,3.1,0,0,0-2.482-.993,3.261,3.261,0,0,0-2.5.993,3.839,3.839,0,0,0-.933,2.737v8.273a.719.719,0,0,1-.722.722Z" transform="translate(-57.722 -112.195)" fill="#00c997"/>
    <path id="Trazado_1141" data-name="Trazado 1141" d="M168.172,266.014a6.619,6.619,0,0,1-3.039-.632,4.016,4.016,0,0,1-1.835-1.88,7.142,7.142,0,0,1-.6-3.114v-6.829H160.32a.718.718,0,0,1-.722-.722v-1.745a.718.718,0,0,1,.722-.721H162.7v-4.994a.723.723,0,0,1,.2-.511.682.682,0,0,1,.526-.21h2.437a.718.718,0,0,1,.722.721v4.994h3.76a.718.718,0,0,1,.722.721v1.745a.718.718,0,0,1-.722.722h-3.76v6.528a3.6,3.6,0,0,0,.436,1.925,1.653,1.653,0,0,0,1.52.692h2.076a.719.719,0,0,1,.722.722v1.865a.719.719,0,0,1-.722.722Z" transform="translate(-70.402 -107.922)" fill="#00c997"/>
    <path id="Trazado_1142" data-name="Trazado 1142" d="M189.11,266.014a6.617,6.617,0,0,1-3.038-.632,4.018,4.018,0,0,1-1.835-1.88,7.151,7.151,0,0,1-.6-3.114v-6.829h-2.377a.718.718,0,0,1-.722-.722v-1.745a.718.718,0,0,1,.722-.721h2.377v-4.994a.723.723,0,0,1,.2-.511.684.684,0,0,1,.526-.21h2.437a.718.718,0,0,1,.722.721v4.994h3.761a.718.718,0,0,1,.722.721v1.745a.718.718,0,0,1-.722.722h-3.761v6.528a3.6,3.6,0,0,0,.436,1.925,1.652,1.652,0,0,0,1.519.692h2.076a.719.719,0,0,1,.722.722v1.865a.719.719,0,0,1-.722.722Z" transform="translate(-79.638 -107.922)" fill="#00c997"/>
    <path id="Trazado_1143" data-name="Trazado 1143" d="M210.587,270.588a8.792,8.792,0,0,1-4.046-.842,5.839,5.839,0,0,1-2.5-2.377,8.225,8.225,0,0,1-.978-3.58q-.031-.542-.03-1.323t.03-1.324a7.934,7.934,0,0,1,1.008-3.6,6.057,6.057,0,0,1,2.527-2.361,9.853,9.853,0,0,1,7.972,0,6.066,6.066,0,0,1,2.527,2.361,7.947,7.947,0,0,1,1.008,3.6q.029.542.03,1.324t-.03,1.323a8.232,8.232,0,0,1-.978,3.58,5.837,5.837,0,0,1-2.5,2.377,8.8,8.8,0,0,1-4.046.842m0-2.978a3.089,3.089,0,0,0,2.467-1.008,4.764,4.764,0,0,0,.962-2.963q.03-.451.03-1.173t-.03-1.174a4.787,4.787,0,0,0-.962-2.948,3.486,3.486,0,0,0-4.934,0,4.784,4.784,0,0,0-.963,2.948q-.03.451-.03,1.174t.03,1.173a4.761,4.761,0,0,0,.963,2.963,3.086,3.086,0,0,0,2.467,1.008" transform="translate(-89.563 -112.195)" fill="#00c997"/>
    <path id="Trazado_1144" data-name="Trazado 1144" d="M72.662,86.356,44.056,132.132l-.036.064h0a15.4,15.4,0,0,1-21.126,4.83l-.064-.037h0A15.4,15.4,0,0,1,18,115.86l.626-1a18.841,18.841,0,0,0,1.942,1.465,2.408,2.408,0,0,0,.22.156v0c.069.048.142.09.215.134l.063.035q.679.417,1.382.772l-.544.869a10.8,10.8,0,0,0,3.418,14.833l.063.036h0v0a10.8,10.8,0,0,0,14.769-3.455l.036-.064v0l0,0L70.71,80.8l1.952-3.124L74.614,80.8l30.407,48.662.149.241a10.8,10.8,0,0,0,14.824,3.421l.01-.005a10.8,10.8,0,0,0,3.418-14.833L81.89,51.824a10.645,10.645,0,0,0-3.885-3.684,10.926,10.926,0,0,0-5.256-1.365h-.006v.009h-.162v-.009h-.006a10.917,10.917,0,0,0-5.256,1.365,10.648,10.648,0,0,0-3.886,3.684L28.852,107.166a7.215,7.215,0,0,1-1.422-.646l0,0h0l-.077-.046c-.045-.027-.091-.056-.139-.083l-.042-.025a6.949,6.949,0,0,1-1.9-1.81l-.108-.159,34.367-55a15.263,15.263,0,0,1,5.577-5.285,15.513,15.513,0,0,1,7.369-1.921h.007l.1-.01h.162l.1.01h.005a15.511,15.511,0,0,1,7.369,1.921A15.265,15.265,0,0,1,85.795,49.4l41.531,66.465a15.4,15.4,0,0,1-4.642,21l-.012.009-.24.152a15.4,15.4,0,0,1-21.006-4.643l-.009-.011-.15-.24Z" transform="translate(-6.916 -18.605)" fill="#00a874"/>
    <path id="Trazado_1145" data-name="Trazado 1145" d="M72.662,44.177,44.056,89.953l-.036.064h0a15.4,15.4,0,0,1-21.126,4.83l-.064-.036h0l0,0A15.4,15.4,0,0,1,18,73.681L59.529,7.217a15.263,15.263,0,0,1,5.577-5.285A15.52,15.52,0,0,1,72.476.01h.007l.1-.01h.162l.1.01h.005a15.518,15.518,0,0,1,7.369,1.923,15.265,15.265,0,0,1,5.578,5.285l41.531,66.464a15.3,15.3,0,0,1,1.922,11.582,15.473,15.473,0,0,1-2.041,4.862l-2.839-4.546a10.949,10.949,0,0,0,.4-1.34,10.745,10.745,0,0,0-1.347-8.129L81.89,9.646a10.636,10.636,0,0,0-3.885-3.684A10.932,10.932,0,0,0,72.749,4.6h-.006v.008h-.162V4.6h-.006A10.923,10.923,0,0,0,67.32,5.962a10.639,10.639,0,0,0-3.886,3.684L21.9,76.11A10.8,10.8,0,0,0,25.32,90.942l.063.037h0v0a10.794,10.794,0,0,0,14.769-3.456l.036-.062v0l0,0L70.71,38.624,72.662,35.5l1.952,3.125,30.407,48.66.149.242a10.741,10.741,0,0,0,6.7,4.766,11.086,11.086,0,0,0,2.762.275l2.692,4.307a15.441,15.441,0,0,1-15.9-6.67l-.009-.01-.15-.241Z" transform="translate(-6.916)" fill="#00d397"/>
  </g>
</svg>
