<svg id="Grupo_139" data-name="Grupo 139" xmlns="http://www.w3.org/2000/svg" xmlns:xlink="http://www.w3.org/1999/xlink" width="16.218" height="16.217" viewBox="0 0 16.218 16.217">
  <defs>
    <clipPath id="clip-path">
      <rect id="Rectángulo_131" data-name="Rectángulo 131" width="16.218" height="16.217" fill="none"/>
    </clipPath>
  </defs>
  <g id="Grupo_72" data-name="Grupo 72" clip-path="url(#clip-path)">
    <path id="Trazado_36" data-name="Trazado 36" d="M0,8.11a8.109,8.109,0,1,1,8.114,8.108A8.109,8.109,0,0,1,0,8.11M8.113.452a7.657,7.657,0,1,0,7.646,7.663A7.678,7.678,0,0,0,8.113.452" transform="translate(0)"/>
    <path id="Trazado_37" data-name="Trazado 37" d="M105.631,104.626l-1.347-1.344q-.648-.647-1.3-1.3c-.123-.123-.306-.253-.126-.439s.315-.015.441.11l2.439,2.437c.056.056.115.11.24.23a1.166,1.166,0,0,1,.141-.236q1.205-1.215,2.418-2.423c.051-.051.1-.132.158-.142a.414.414,0,0,1,.3.038c.048.04.034.187.007.274-.021.069-.1.119-.16.176l-2.649,2.647a1.107,1.107,0,0,1,.243.138q1.215,1.205,2.422,2.419c.057.057.135.11.156.179s.028.213-.019.256a.38.38,0,0,1-.276.049c-.059-.008-.11-.088-.161-.139q-1.211-1.21-2.419-2.422a2.522,2.522,0,0,1-.18-.231c-.1.092-.16.149-.22.208l-2.438,2.437c-.051.051-.1.129-.16.14a.359.359,0,0,1-.276-.036c-.051-.053-.041-.187-.021-.276.014-.061.09-.108.141-.159q1.21-1.211,2.422-2.42a2.481,2.481,0,0,1,.222-.175" transform="translate(-97.821 -96.564)"/>
  </g>
</svg>
