<svg xmlns="http://www.w3.org/2000/svg" width="22" height="22" viewBox="0 0 22 22" fill="none"><g id="Bold / attachment"><path id="Icons / Bold / attachment" d="M17.0191 5.77458C16.2207 4.976 15.1378 4.52734 14.0087 4.52734C12.8795 4.52734 11.7966 4.976 10.9983 5.77458L4.65222 12.12C3.43788 13.3464 3.44273 15.3234 4.66306 16.5437C5.8834 17.7641 7.86046 17.7689 9.08677 16.5546L14.241 11.3991C14.7827 10.8978 15.0067 10.1403 14.8249 9.42504C14.643 8.70974 14.0844 8.15126 13.3691 7.96955C12.6538 7.78784 11.8963 8.01203 11.3952 8.55382L8.22212 11.7238C8.06744 11.8783 8.00692 12.1035 8.06335 12.3147C8.11977 12.5258 8.28457 12.6909 8.49567 12.7476C8.70677 12.8043 8.9321 12.7441 9.08677 12.5897L12.2598 9.41541C12.5708 9.11867 13.0618 9.1245 13.3657 9.42854C13.6696 9.73258 13.6751 10.2236 13.3782 10.5344L8.22212 15.6899C7.47508 16.437 6.26391 16.437 5.51687 15.6899C4.76984 14.9429 4.76984 13.7317 5.51687 12.9847L11.8629 6.63923C13.048 5.45418 14.9694 5.45418 16.1544 6.63923C17.3395 7.82429 17.3395 9.74564 16.1544 10.9307L11.3952 15.6899C11.2362 15.8435 11.1724 16.0708 11.2284 16.2846C11.2844 16.4984 11.4513 16.6654 11.6651 16.7213C11.8789 16.7773 12.1063 16.7136 12.2598 16.5546L17.0191 11.7947C17.8178 10.9965 18.2665 9.91357 18.2665 8.78435C18.2665 7.65513 17.8178 6.5722 17.0191 5.77397V5.77458Z" fill="currentColor"></path><mask id="mask0_336_42791" maskUnits="userSpaceOnUse" x="3" y="4" width="16" height="14" style="mask-type: luminance;"><path id="Icons / Bold / attachment_2" d="M17.0191 5.77458C16.2207 4.976 15.1378 4.52734 14.0087 4.52734C12.8795 4.52734 11.7966 4.976 10.9983 5.77458L4.65222 12.12C3.43788 13.3464 3.44273 15.3234 4.66306 16.5437C5.8834 17.7641 7.86046 17.7689 9.08677 16.5546L14.241 11.3991C14.7827 10.8978 15.0067 10.1403 14.8249 9.42504C14.643 8.70974 14.0844 8.15126 13.3691 7.96955C12.6538 7.78784 11.8963 8.01203 11.3952 8.55382L8.22212 11.7238C8.06744 11.8783 8.00692 12.1035 8.06335 12.3147C8.11977 12.5258 8.28457 12.6909 8.49567 12.7476C8.70677 12.8043 8.9321 12.7441 9.08677 12.5897L12.2598 9.41541C12.5708 9.11867 13.0618 9.1245 13.3657 9.42854C13.6696 9.73258 13.6751 10.2236 13.3782 10.5344L8.22212 15.6899C7.47508 16.437 6.26391 16.437 5.51687 15.6899C4.76984 14.9429 4.76984 13.7317 5.51687 12.9847L11.8629 6.63923C13.048 5.45418 14.9694 5.45418 16.1544 6.63923C17.3395 7.82429 17.3395 9.74564 16.1544 10.9307L11.3952 15.6899C11.2362 15.8435 11.1724 16.0708 11.2284 16.2846C11.2844 16.4984 11.4513 16.6654 11.6651 16.7213C11.8789 16.7773 12.1063 16.7136 12.2598 16.5546L17.0191 11.7947C17.8178 10.9965 18.2665 9.91357 18.2665 8.78435C18.2665 7.65513 17.8178 6.5722 17.0191 5.77397V5.77458Z" fill="white"></path></mask><g mask="url(#mask0_336_42791)"></g></g></svg>