<svg id="Grupo_171" data-name="Grupo 171" xmlns="http://www.w3.org/2000/svg" xmlns:xlink="http://www.w3.org/1999/xlink" width="10.836" height="12.425" viewBox="0 0 10.836 12.425">
  <defs>
    <clipPath id="clip-path">
      <rect id="Rectángulo_221" data-name="Rectángulo 221" width="10.836" height="12.425" fill="#0d1b3b"/>
    </clipPath>
  </defs>
  <g id="Grupo_170" data-name="Grupo 170" transform="translate(0 0)" clip-path="url(#clip-path)">
    <path id="Trazado_681" data-name="Trazado 681" d="M5.411,10.386q-2.2,0-4.408,0A.91.91,0,0,1,.015,9.64.9.9,0,0,1,.8,8.586c.439-.048.556-.18.556-.631,0-.842,0-1.685,0-2.527A4.03,4.03,0,0,1,4.229,1.535a.213.213,0,0,0,.178-.252A2.215,2.215,0,0,1,4.424.808,1,1,0,0,1,5.5,0a.942.942,0,0,1,.906.93c-.026.441.149.583.536.73A3.985,3.985,0,0,1,9.472,5.32c.013.89,0,1.779,0,2.669,0,.414.13.554.542.6a.9.9,0,0,1,.061,1.779,2.036,2.036,0,0,1-.332.021q-2.168,0-4.337,0" transform="translate(0 0)" fill="#0d1b3b"/>
    <path id="Trazado_682" data-name="Trazado 682" d="M13.191,37.273h3.153a1.577,1.577,0,0,1-3.153,0" transform="translate(-9.353 -26.427)" fill="#0d1b3b"/>
  </g>
</svg>
