<svg id="Grupo_146" data-name="Grupo 146" xmlns="http://www.w3.org/2000/svg" xmlns:xlink="http://www.w3.org/1999/xlink" width="39" height="38.999" viewBox="0 0 39 38.999">
  <defs>
    <clipPath id="clip-path">
      <rect id="Rectángulo_181" data-name="Rectángulo 181" width="39" height="38.999" fill="#0d1b3b"/>
    </clipPath>
  </defs>
  <g id="Grupo_145" data-name="Grupo 145" clip-path="url(#clip-path)">
    <path id="Trazado_618" data-name="Trazado 618" d="M19.484,0A19.5,19.5,0,1,1,0,19.5,19.536,19.536,0,0,1,19.484,0m17.88,19.5A17.864,17.864,0,1,0,19.5,37.362,17.864,17.864,0,0,0,37.364,19.5" transform="translate(0 0)" fill="#0d1b3b"/>
    <path id="Trazado_619" data-name="Trazado 619" d="M52.577,68.831A16.254,16.254,0,1,1,68.84,52.586,16.257,16.257,0,0,1,52.577,68.831M63.488,62.3a14.534,14.534,0,0,0,3.671-8.915c-.306,0-.542.012-.776,0a.8.8,0,0,1-.007-1.606c.246-.015.494,0,.789,0a14.609,14.609,0,0,0-3.751-8.99,5.941,5.941,0,0,1-.5.6.782.782,0,0,1-1.122.011.8.8,0,0,1-.006-1.156c.162-.183.338-.355.526-.55a14.5,14.5,0,0,0-8.921-3.677c0,.228,0,.375,0,.522,0,.689-.284,1.043-.82,1.036-.518-.006-.791-.354-.8-1.016,0-.17,0-.341,0-.553a14.538,14.538,0,0,0-8.908,3.687c.819.925.934,1.26.546,1.655-.135.137-.4.308-.529.26a10.592,10.592,0,0,1-1.247-.634c-1.853,1.638-3.812,6.382-3.571,8.8.615.053,1.5-.18,1.483.836-.011.982-.877.74-1.541.821a14.5,14.5,0,0,0,3.739,8.942,6.736,6.736,0,0,1,.52-.594.781.781,0,0,1,1.121.013A.794.794,0,0,1,43.4,62.9c-.161.188-.341.36-.541.57a14.552,14.552,0,0,0,8.9,3.68c.061-.673-.17-1.53.813-1.541,1.019-.011.77.878.844,1.543A14.487,14.487,0,0,0,62.3,63.475a6.162,6.162,0,0,1-.659-.771.722.722,0,0,1,.149-.936c.413-.41.739-.313,1.7.529" transform="translate(-33.087 -33.078)" fill="#0d1b3b"/>
    <path id="Trazado_620" data-name="Trazado 620" d="M135.14,140.847q0,1.761,0,3.522c0,.681-.289,1.045-.818,1.039s-.8-.366-.8-1.059c0-2.393,0-4.785.005-7.178a.484.484,0,0,0-.33-.532A2.79,2.79,0,0,1,131.7,133a.469.469,0,0,0-.145-.6q-2.526-2.517-5.038-5.05a1.555,1.555,0,0,1-.331-.413.747.747,0,0,1,.182-.933.757.757,0,0,1,.984-.074,2.3,2.3,0,0,1,.364.326q2.488,2.493,4.97,4.991a.5.5,0,0,0,.641.155,2.781,2.781,0,0,1,3.579,1.466.538.538,0,0,0,.594.374c1.724-.013,3.448-.008,5.171,0a.835.835,0,0,1,.937.7.816.816,0,0,1-.891.919c-1.709.007-3.418.018-5.127-.008a.649.649,0,0,0-.723.458,2.459,2.459,0,0,1-1.378,1.327.5.5,0,0,0-.353.561c.016,1.218.007,2.437.007,3.656m.384-6.782a1.187,1.187,0,0,0-1.186-1.235,1.237,1.237,0,0,0-1.225,1.218,1.191,1.191,0,0,0,1.186,1.193,1.145,1.145,0,0,0,1.225-1.176" transform="translate(-114.832 -114.548)" fill="#0d1b3b"/>
  </g>
</svg>
