<svg id="Grupo_144" data-name="Grupo 144" xmlns="http://www.w3.org/2000/svg" xmlns:xlink="http://www.w3.org/1999/xlink" width="27.708" height="34.125" viewBox="0 0 27.708 34.125">
  <defs>
    <clipPath id="clip-path">
      <rect id="Rectángulo_180" data-name="Rectángulo 180" width="27.708" height="34.125" fill="#0d1b3b"/>
    </clipPath>
  </defs>
  <g id="Grupo_143" data-name="Grupo 143" clip-path="url(#clip-path)">
    <path id="Trazado_612" data-name="Trazado 612" d="M0,17.047Q0,9.036,0,1.025C0,.182.175.005,1.006.005Q9.665,0,18.324,0a1.253,1.253,0,0,1,.959.392Q23.3,4.423,27.328,8.436a1.208,1.208,0,0,1,.38.925q-.01,11.9-.005,23.8c0,.768-.2.965-.953.965H.97c-.781,0-.97-.191-.97-.984q0-8.047,0-16.094M17.9,1.457H1.438V32.673H26.263V9.815h-.455q-3.475,0-6.95,0c-.765,0-.961-.2-.962-.958q0-3.475,0-6.95V1.457m7.221,6.922L19.349,2.612V8.379Z" transform="translate(0 0)" fill="#0d1b3b"/>
    <path id="Trazado_613" data-name="Trazado 613" d="M61.4,226.146H52.08c-.535,0-.814-.207-.854-.623a.712.712,0,0,1,.619-.792,2.64,2.64,0,0,1,.4-.013q9.178,0,18.355,0a2.271,2.271,0,0,1,.5.036.641.641,0,0,1,.512.687.65.65,0,0,1-.526.679,2.053,2.053,0,0,1-.429.025H61.4" transform="translate(-47.528 -208.511)" fill="#0d1b3b"/>
    <path id="Trazado_614" data-name="Trazado 614" d="M61.432,302.017q-4.66,0-9.32,0c-.59,0-.874-.237-.874-.715a.662.662,0,0,1,.588-.7,1.785,1.785,0,0,1,.287-.012q9.266,0,18.533,0A.886.886,0,0,1,71.5,301a.639.639,0,0,1-.429,1,2.116,2.116,0,0,1-.43.022H61.432" transform="translate(-47.543 -278.908)" fill="#0d1b3b"/>
    <path id="Trazado_615" data-name="Trazado 615" d="M248.408,344.624a3.189,3.189,0,1,1,.045-6.378,3.264,3.264,0,0,1,3.161,3.264,3.17,3.17,0,0,1-3.206,3.113m1.78-3.3a1.772,1.772,0,1,0-1.775,1.817,1.853,1.853,0,0,0,1.775-1.817" transform="translate(-227.536 -313.853)" fill="#0d1b3b"/>
    <path id="Trazado_616" data-name="Trazado 616" d="M56.922,376.513q2.412,0,4.823,0a.75.75,0,0,1,.827.879.641.641,0,0,1-.67.541q-4.985.011-9.971,0a.66.66,0,0,1-.7-.739.671.671,0,0,1,.761-.68c1.644-.005,3.288,0,4.931,0" transform="translate(-47.535 -349.359)" fill="#0d1b3b"/>
    <path id="Trazado_617" data-name="Trazado 617" d="M56.7,148.856c1.572,0,3.144,0,4.716,0,.628,0,.967.447.766.985a.678.678,0,0,1-.711.441c-.612,0-1.224,0-1.836,0q-3.78,0-7.561,0c-.548,0-.826-.224-.848-.667-.024-.475.259-.755.793-.758.972-.006,1.944,0,2.916,0H56.7" transform="translate(-47.535 -138.119)" fill="#0d1b3b"/>
  </g>
</svg>
