<svg xmlns="http://www.w3.org/2000/svg" xmlns:xlink="http://www.w3.org/1999/xlink" width="82" height="37" viewBox="0 0 82 37">
  <defs>
    <clipPath id="clip-path">
      <rect id="Rect치ngulo_31" data-name="Rect치ngulo 31" width="82" height="37" transform="translate(36 840)" fill="#fff"/>
    </clipPath>
    <clipPath id="clip-path-2">
      <rect id="Rect치ngulo_32" data-name="Rect치ngulo 32" width="16.937" height="20.652" transform="translate(0 0)" fill="#0d1b3b"/>
    </clipPath>
  </defs>
  <g id="Enmascarar_grupo_5" data-name="Enmascarar grupo 5" transform="translate(-36 -840)" clip-path="url(#clip-path)">
    <g id="Grupo_28" data-name="Grupo 28" transform="translate(67.031 848.174)">
      <g id="Grupo_27" data-name="Grupo 27" clip-path="url(#clip-path-2)">
        <path id="Trazado_34" data-name="Trazado 34" d="M8.469,0A8.478,8.478,0,0,0,0,8.469c0,3.116,3.414,7.794,6.279,11.17a2.872,2.872,0,0,0,4.38,0c2.864-3.376,6.278-8.055,6.278-11.17A8.478,8.478,0,0,0,8.469,0M8.9,18.151a.573.573,0,0,1-.872,0C4.443,13.921,2.3,10.3,2.3,8.469a6.169,6.169,0,0,1,12.337,0c0,1.831-2.143,5.451-5.732,9.682" fill="#0d1b3b"/>
        <path id="Trazado_35" data-name="Trazado 35" d="M10.218,8.118A1.75,1.75,0,1,1,8.469,6.369a1.749,1.749,0,0,1,1.749,1.749" fill="#0d1b3b"/>
      </g>
    </g>
  </g>
</svg>
