<?xml version="1.0" encoding="UTF-8" standalone="no"?>
<svg
   version="1.2"
   viewBox="0 0 337.04395 297.73163"
   width="337.04395"
   height="297.73163"
   id="svg44"
   sodipodi:docname="logo final_2.0 (2).svg"
   inkscape:version="1.2.2 (b0a8486541, 2022-12-01)"
   xmlns:inkscape="http://www.inkscape.org/namespaces/inkscape"
   xmlns:sodipodi="http://sodipodi.sourceforge.net/DTD/sodipodi-0.dtd"
   xmlns="http://www.w3.org/2000/svg"
   xmlns:svg="http://www.w3.org/2000/svg">
  <defs
     id="defs48" />
  <sodipodi:namedview
     id="namedview46"
     pagecolor="#ffffff"
     bordercolor="#666666"
     borderopacity="1.0"
     inkscape:showpageshadow="2"
     inkscape:pageopacity="0.0"
     inkscape:pagecheckerboard="0"
     inkscape:deskcolor="#d1d1d1"
     showgrid="false"
     inkscape:zoom="0.985"
     inkscape:cx="342.13198"
     inkscape:cy="136.04061"
     inkscape:window-width="1920"
     inkscape:window-height="1011"
     inkscape:window-x="0"
     inkscape:window-y="0"
     inkscape:window-maximized="1"
     inkscape:current-layer="svg44" />
  <style
     id="style2">.a{fill:#fff}.b{fill:#00c997}.c{fill:#0a1d3e}.d{fill:#02c998}.e{fill:#0b1d3f}.f{fill:#0b1e40}.g{fill:#081b3d}</style>
  <path
     class="b"
     d="m 213.98236,272.20241 c 0,-9 6.9,-15.5 16.2,-15.5 5.1,0 9.5,1.9 12.3,5.3 l -4.5,4.1 c -2,-2.3 -4.5,-3.5 -7.5,-3.5 -5.6,0 -9.5,4 -9.5,9.6 0,5.6 3.9,9.6 9.5,9.6 q 4.5,0 7.5,-3.6 l 4.5,4.1 c -2.8,3.5 -7.2,5.4 -12.4,5.4 -9.2,0 -16.1,-6.5 -16.1,-15.5 z"
     id="path10" />
  <path
     fill-rule="evenodd"
     class="b"
     d="m 266.78236,274.00241 v 13.1 h -6.2 v -2.8 c -1.3,2.1 -3.6,3.2 -7,3.2 -5.4,0 -8.6,-3 -8.6,-7 0,-4 2.9,-6.8 9.9,-6.8 h 5.3 c 0,-2.9 -1.8,-4.6 -5.3,-4.6 -2.5,0 -5,0.8 -6.7,2.2 l -2.4,-4.7 c 2.6,-1.8 6.3,-2.8 10,-2.8 7,0 11,3.3 11,10.2 z m -6.6,5.9 v -2.4 h -4.6 c -3.1,0 -4.1,1.2 -4.1,2.7 0,1.7 1.4,2.8 3.7,2.8 2.3,0 4.2,-1 5,-3.1 z"
     id="path12" />
  <path
     class="b"
     d="m 270.58236,285.00241 2.2,-4.8 c 2.1,1.4 5.2,2.3 8,2.3 3.1,0 4.2,-0.9 4.2,-2.1 0,-3.8 -13.8,0 -13.8,-9.1 0,-4.4 3.9,-7.5 10.6,-7.5 3.2,0 6.7,0.8 8.8,2 l -2.2,4.8 c -2.2,-1.3 -4.5,-1.7 -6.6,-1.7 -3,0 -4.3,0.9 -4.3,2.1 0,3.9 13.9,0.1 13.9,9.2 0,4.3 -4,7.3 -10.8,7.3 -3.9,0 -7.9,-1.1 -10,-2.5 z"
     id="path14" />
  <path
     class="b"
     d="m 318.98236,274.00241 v 13.1 h -6.7 v -12.1 c 0,-3.7 -1.7,-5.4 -4.6,-5.4 -3.2,0 -5.5,2 -5.5,6.2 v 11.3 h -6.7 v -31.6 h 6.7 v 11.1 c 1.8,-1.8 4.3,-2.8 7.3,-2.8 5.4,0 9.5,3.2 9.5,10.2 z"
     id="path16" />
  <path
     class="c"
     d="m 162.48236,57.302412 c 10.9,-0.8 20.5,3.9 26.6,12.8 l 78,124.799998 c 17.1,33 -28.2,60 -49.1,29.3 l -53,-84.6 -53.5,85.4 c -8.9,13.2 -27.1,16.7 -40.2,7.4 -12.9,-9 -16.1,-27.4 -6.6,-40.1 l 7.1,4.7 c -4.7,6.7 -5.4,15.1 -1.2,22.2 6.8,11.9 23.6,13.1 32.4,2.7 21,-32.7 41.1,-65.9 62,-98.6 l 60.2,96.1 c 14.1,20.7 43.8,5 35.5,-17.9 -26,-42.7 -52.8,-84.8 -79.2,-127.199998 -7.7,-10.8 -23.6,-11.3 -32.1,-1.2 -22,34.699998 -43.6,69.599998 -65.4,104.399998 -0.7,0.7 -3.1,-0.8 -3.8,-1.3 -1,-0.6 -3.5,-2.7 -3.1,-3.9 l 64.3,-102.899998 c 4.8,-6.8 12.6,-11.4 21.1,-12.1 z"
     id="path18" />
  <path
     class="d"
     d="m 266.48236,180.60241 c -0.3,0.2 -0.6,-0.3 -0.7,-0.5 -1.7,-2 -3,-5.3 -4.7,-7.5 1.5,-5.9 1.6,-11.8 -1.5,-17.1 l -77.8,-124.599998 c -7.3,-10.9 -23.5,-11.9 -32.1,-2 -27.1,42.8 -54,85.699998 -80.4,128.899998 -8.5,22.5 21.4,38.5 35.3,18.3 l 60.1,-96.299998 0.5,-0.2 61.1,97.699998 c 3.9,5.3 10.1,8.1 16.7,8.1 l 4.8,8 c -11.4,2.2 -23.3,-2.8 -29.6,-12.6 l -53.2,-85.099998 -53.5,85.599998 c -21.3,29.2 -65.1,2.8 -48.8,-29.7 l 79.5,-127.099998 c 10.9,-14 32.4,-14.6000003 44.3,-1.5 27.6,42.5 53.9,85.899998 80.9,128.799998 4.1,7.7 4.5,16.8 1.1,24.8 -0.2,0.5 -1.8,3.8 -2,4 z"
     id="path20" />
  <path
     fill-rule="evenodd"
     class="c"
     d="m 50.08236,255.40241 c 0,-0.2 0.7,-0.5 0.9,-0.6 0.8,-0.1 3.1,-0.1 3.9,0 0.5,0.1 1,0.3 1.1,0.8 v 30.2 c 0.1,0.4 -0.1,0.9 -0.5,1.1 -0.4,0.1 -4.1,0.1 -4.6,0 -0.8,-0.3 -0.7,-1.6 -0.7,-2.4 -3.6,3.9 -11.1,4 -14.4,-0.3 -3.3,-4.2 -3.3,-13.9 0.1,-18.1 2.7,-3.3 7.8,-3.9 11.5,-2.2 l 2.7,1.8 z m -6.2,12.4 c -5.9,0.8 -5.7,12.6 -1.3,14.4 3.9,1.6 7.1,-1.1 7.5,-5 0.4,-4.4 -0.4,-10.1 -6.2,-9.4 z"
     id="path22" />
  <path
     fill-rule="evenodd"
     class="e"
     d="m 108.88236,284.30241 c -1.4,1.5 -3.2,2.6 -5.2,3 -4.9,0.9 -11.2,-1.8 -10.6,-7.6 0.8,-6.7 10.5,-6.8 15.5,-7.8 0.7,-4 -3.1,-5.9 -6.5,-4.3 -1.3,0.6 -1.7,2.3 -2.5,2.5 -0.5,0.1 -4.3,0.1 -4.6,-0.2 -1.4,-0.8 1.2,-4.1 2,-4.7 5.4,-4.2 17.4,-2.9 17.7,5.5 v 15.6 c -0.1,0.4 -0.6,0.6 -1,0.7 -0.5,0 -3.7,0.1 -4.2,-0.1 -0.9,-0.2 -0.5,-1.8 -0.6,-2.6 z m -0.2,-8.4 c -2.5,0.3 -5.9,0.4 -8.2,1.7 -3.2,1.9 -1.4,5.1 1.8,5.5 4.5,0.5 6.7,-3.1 6.4,-7.2 z"
     id="path24" />
  <path
     fill-rule="evenodd"
     class="e"
     d="m 24.58236,284.30241 c -1.5,1.5 -3.1,2.6 -5.2,3 -5.2,0.9 -11.7999999,-2.2 -10.3999999,-8.3 1.3999999,-6 10.3999999,-6.2 15.1999999,-7 0.7,-3.9 -2.6,-5.9 -6.1,-4.4 -1.6,0.6 -1.4,1.2 -2.2,2.1 -0.5,0.6 -3.6,0.5 -4.4,0.4 -2.5999999,-0.2 -0.1,-3.7 1,-4.7 5.1,-4.4 17.5,-3.3 17.9,5.1 l -0.1,15.8 c -0.1,0.3 -0.4,0.6 -0.7,0.7 -0.5,0.1 -4,0 -4.4,-0.1 -0.9,-0.2 -0.5,-1.8 -0.6,-2.6 z m -0.2,-8.4 c -2.6,0.4 -5.9,0.4 -8.2,1.7 -3.1,1.8 -1.4,5.1 1.8,5.5 4.5,0.5 6.8,-3.1 6.4,-7.2 z"
     id="path26" />
  <path
     fill-rule="evenodd"
     class="e"
     d="m 65.48236,277.00241 c -0.4,4 2.9,7.4 7,5.8 1.5,-0.6 2,-2.3 3.5,-2.5 0.7,-0.1 3.7,-0.1 4.3,0.1 2,0.6 -0.9,3.8 -1.7,4.5 -4.6,3.7 -13.1,3.6 -16.9,-1.2 -3.2,-3.9 -3.3,-11.4 -0.8,-15.7 3.9,-7 15.7,-6.8 19.3,0.5 0.9,1.7 1.7,5.2 1.5,7.1 -0.1,0.4 -0.4,1.4 -0.8,1.4 z m 9.8,-3.9 c 0.3,-8 -10.3,-8 -9.8,0 z"
     id="path28" />
  <path
     class="e"
     d="m 124.48236,266.20241 c 5.1,-5.5 14.5,-4.1 16.3,3.7 1.1,4.8 0,10.8 0.4,15.8 0,0.3 -0.3,0.9 -0.6,1.1 -0.4,0.3 -3.9,0.3 -4.6,0.2 -0.9,-0.1 -1,-0.5 -1.1,-1.3 -0.4,-4.2 0.4,-9 0,-13.2 -0.5,-6.2 -9,-6 -9.9,-0.6 -0.8,3.9 0.3,9.6 -0.1,13.8 -0.1,0.7 -0.2,1.1 -1,1.3 -0.6,0 -4.3,0 -4.6,-0.1 -0.4,-0.2 -0.8,-1 -0.8,-1.4 l 0.1,-21.1 c 0.1,-0.4 0.5,-0.9 0.9,-1 0.6,-0.1 3.6,-0.1 4.2,0.1 1.3,0.3 0.7,1.8 0.8,2.7 z"
     id="path30" />
  <path
     fill-rule="evenodd"
     class="e"
     d="m 189.78236,263.00241 c 10.3,-0.6 13.8,7.6 11.8,16.6 -2.3,10.6 -19.6,10.7 -22,0 -1.9,-8.2 0.8,-16.2 10.2,-16.6 z m -2.9,5.9 c -1.9,2.1 -1.9,8.8 -0.8,11.2 1.7,4 7.5,3.8 9.1,-0.3 0.8,-2 0.7,-7.6 -0.2,-9.5 -1.3,-3.1 -5.7,-3.8 -8.1,-1.4 z"
     id="path32" />
  <path
     class="f"
     d="m 159.98236,267.30241 c 0,0.5 -0.5,1 -1,1 h -5.7 v 11 c 0,0.3 0.6,1.6 0.8,1.9 1.3,1.5 5.3,0 6.1,1.1 0.2,0.3 0.2,3.2 0.2,3.7 -0.1,0.6 -0.4,0.9 -1,1 -1.1,0.1 -3.7,0.1 -4.9,0 -9.9,-0.8 -6.5,-12 -7.1,-18.7 h -3.6 c -0.6,0 -0.9,-0.6 -1,-1.1 -0.1,-0.6 -0.2,-3.8 0.6,-3.8 h 4 c 0.2,-2.3 -0.3,-5.1 0,-7.4 0,-0.8 0.3,-1.1 1.1,-1.2 0.7,-0.1 3.9,-0.1 4.4,0.2 0.1,0.1 0.4,0.5 0.4,0.6 v 7.8 h 5.9 c 0.3,0 0.8,0.6 0.8,0.9 0.1,0.5 0.1,2.4 0,3 z"
     id="path34" />
  <path
     class="f"
     d="m 160.38236,264.10241 c 0.2,-0.2 0.2,-0.6 0.8,-0.7 0.6,-0.1 3.6,0.2 3.7,0 0.2,-2.3 -0.2,-5.1 0,-7.4 0.1,-0.8 0.4,-1.1 1.2,-1.2 0.7,-0.1 3.9,-0.1 4.3,0.2 0.2,0.1 0.5,0.5 0.5,0.6 v 7.8 h 5.9 c 0.1,0 0.7,0.5 0.7,0.7 0.2,0.4 0.1,3.4 -0.1,3.8 0,0.1 -0.7,0.4 -0.8,0.4 h -5.7 v 11 c 0,0.3 0.6,1.6 0.8,1.9 1.3,1.5 5.2,0 6.1,1.1 0.2,0.3 0.2,3.7 0,4.1 -0.1,0.4 -0.5,0.5 -0.8,0.6 -2.8,0.3 -7.8,0.1 -9.9,-2 -3.6,-3.5 -1.7,-12 -2.2,-16.7 h -3.6 c -0.5,0 -0.7,-0.5 -0.9,-0.8 z"
     id="path36" />
  <path
     class="f"
     d="m 85.28236,254.90241 c 0.4,-0.2 3.6,-0.2 4.2,-0.1 0.4,0.1 0.9,0.4 1,0.8 v 30.4 c 0,0.5 -0.4,0.9 -0.8,1 -0.6,0.1 -3.8,0.1 -4.4,-0.1 -0.5,-0.1 -0.7,-0.4 -0.8,-0.9 v -29.9 c 0,-0.4 0.4,-1.1 0.8,-1.2 z"
     id="path38" />
  <path
     fill-rule="evenodd"
     class="g"
     d="m 318.98236,260.30241 c -4.3,0 -7.8,-3.5 -7.8,-7.8 0,-4.3 3.5,-7.8 7.8,-7.8 4.3,0 7.8,3.5 7.8,7.8 0,4.3 -3.5,7.8 -7.8,7.8 z m 0,-14.1 c -3.5,0 -6.3,2.8 -6.3,6.3 0,3.4 2.8,6.3 6.3,6.3 3.5,0 6.3,-2.9 6.3,-6.3 0,-3.5 -2.8,-6.3 -6.3,-6.3 z"
     id="path40" />
  <path
     fill-rule="evenodd"
     class="g"
     d="m 316.68236,248.40241 c 0.5,-0.1 1.2,-0.1 1.9,-0.1 q 1.6,0 2.4,0.6 0.6,0.6 0.6,1.5 c 0,1.1 -0.7,1.8 -1.5,2.1 0.6,0.2 1,0.8 1.2,1.6 0.2,1.2 0.4,1.9 0.6,2.2 h -1.1 c -0.1,-0.2 -0.3,-0.9 -0.5,-1.9 -0.3,-1.1 -0.7,-1.5 -1.6,-1.5 h -1 v 3.4 h -1 z m 1,3.7 h 1 c 1.2,0 1.9,-0.6 1.9,-1.5 0,-1.1 -0.8,-1.5 -1.9,-1.5 -0.5,0 -0.8,0 -1,0.1 z"
     id="path42" />
</svg>
