<svg xmlns="http://www.w3.org/2000/svg" width="73.155" height="62.371" viewBox="0 0 73.155 62.371">
  <path id="Trazado_88" data-name="Trazado 88" d="M52.256,28.357,33.894,57.74l-.023.041h0a9.888,9.888,0,0,1-13.56,3.1l-.041-.023h0v0a9.888,9.888,0,0,1-3.1-13.561L43.826,4.632a9.8,9.8,0,0,1,3.58-3.392A9.962,9.962,0,0,1,52.136.006h0L52.2,0h.1l.064.006h0A9.961,9.961,0,0,1,57.1,1.24a9.8,9.8,0,0,1,3.581,3.392L87.344,47.3a9.818,9.818,0,0,1,1.234,7.435,9.931,9.931,0,0,1-1.31,3.121l-1.822-2.918a7.03,7.03,0,0,0,.258-.86,6.9,6.9,0,0,0-.865-5.218L58.179,6.192a6.827,6.827,0,0,0-2.494-2.364,7.017,7.017,0,0,0-3.374-.876h0v.005h-.1V2.951h0a7.012,7.012,0,0,0-3.374.876,6.829,6.829,0,0,0-2.494,2.364L19.673,48.855a6.931,6.931,0,0,0,2.194,9.521l.041.024h0a6.929,6.929,0,0,0,9.48-2.218l.023-.04h0L51,24.792l1.253-2.006,1.253,2.006L73.027,56.027l.1.155a6.9,6.9,0,0,0,4.3,3.059,7.116,7.116,0,0,0,1.773.177l1.728,2.765A9.912,9.912,0,0,1,70.719,57.9l-.006-.006-.1-.155Z" transform="translate(-15.678)" fill="#00c997"/>
</svg>
