<svg xmlns="http://www.w3.org/2000/svg" width="73.155" height="62.371" viewBox="0 0 73.155 62.371">
  <path id="Trazado_87" data-name="Trazado 87" d="M52.256,70.536,33.894,99.919l-.023.041h0a9.887,9.887,0,0,1-13.56,3.1l-.041-.024h0a9.888,9.888,0,0,1-3.1-13.561l.4-.643a12.1,12.1,0,0,0,1.246.941,1.548,1.548,0,0,0,.141.1h0v0c.044.031.091.058.138.086l.041.023q.436.268.887.5l-.349.558a6.932,6.932,0,0,0,2.194,9.521l.041.023h0v0a6.934,6.934,0,0,0,9.48-2.218l.023-.041h0l0,0L51,66.971l1.253-2.005,1.253,2.005L73.027,98.207l.1.155a6.934,6.934,0,0,0,9.515,2.2l.006,0a6.932,6.932,0,0,0,2.194-9.521L58.179,48.37a6.833,6.833,0,0,0-2.494-2.364,7.013,7.013,0,0,0-3.374-.876h0v.006h-.1v-.006h0a7.008,7.008,0,0,0-3.374.876,6.835,6.835,0,0,0-2.494,2.364l-22.2,35.523a4.631,4.631,0,0,1-.913-.415h0l-.05-.03c-.029-.018-.058-.036-.089-.053l-.027-.016a4.461,4.461,0,0,1-1.218-1.162l-.07-.1,22.06-35.3a9.8,9.8,0,0,1,3.58-3.392,9.957,9.957,0,0,1,4.73-1.233h0l.063-.006h.1l.064.006h0a9.956,9.956,0,0,1,4.73,1.233,9.8,9.8,0,0,1,3.581,3.392L87.344,89.474a9.888,9.888,0,0,1-2.98,13.483l-.008.006-.154.1a9.887,9.887,0,0,1-13.483-2.98l-.006-.007-.1-.154Z" transform="translate(-15.678 -42.178)" fill="#081b3d"/>
</svg>
