<svg id="Grupo_179" data-name="Grupo 179" xmlns="http://www.w3.org/2000/svg" xmlns:xlink="http://www.w3.org/1999/xlink" width="14.451" height="14.451" viewBox="0 0 14.451 14.451">
  <defs>
    <clipPath id="clip-path">
      <rect id="Rectángulo_234" data-name="Rectángulo 234" width="14.451" height="14.451" fill="#0d1b3b"/>
    </clipPath>
  </defs>
  <g id="Grupo_180" data-name="Grupo 180" clip-path="url(#clip-path)">
    <path id="Trazado_686" data-name="Trazado 686" d="M7.229,14.451a7.226,7.226,0,1,1,7.222-7.225,7.225,7.225,0,0,1-7.222,7.225M8,9.294a1.739,1.739,0,0,1,.837-1.421q.073-.057.144-.119a2.659,2.659,0,0,0,.95-2.435,2.724,2.724,0,0,0-5.16-.829,2.486,2.486,0,0,0-.261,1.166H6.034c0-.045.005-.079.01-.112a1.188,1.188,0,0,1,2.264-.366,1.183,1.183,0,0,1-.331,1.41c-.09.077-.184.151-.275.226A3.172,3.172,0,0,0,6.568,8.479c-.066.263-.09.537-.135.814Zm.178,1.558a.95.95,0,1,0-.944.952.948.948,0,0,0,.944-.952" transform="translate(0 0)" fill="#0d1b3b"/>
  </g>
</svg>
