<svg id="Grupo_148" data-name="Grupo 148" xmlns="http://www.w3.org/2000/svg" xmlns:xlink="http://www.w3.org/1999/xlink" width="48.007" height="47.985" viewBox="0 0 48.007 47.985">
  <defs>
    <clipPath id="clip-path">
      <rect id="Rectángulo_182" data-name="Rectángulo 182" width="48.007" height="47.985" fill="#0d1b3b"/>
    </clipPath>
  </defs>
  <g id="Grupo_147" data-name="Grupo 147" clip-path="url(#clip-path)">
    <path id="Trazado_621" data-name="Trazado 621" d="M24.815,38.059a13.323,13.323,0,0,0,.021,1.485c.016.141.261.31.434.37a4.135,4.135,0,0,1-2.309,7.937,4.1,4.1,0,0,1-3.081-3.685,4.006,4.006,0,0,1,2.6-4.133c.592-.2.738-.48.679-1.024a9.307,9.307,0,0,1-.006-.947,14.293,14.293,0,0,1-8.492-3.534l-1.2,1.279c1.055,2.372.637,4.408-1.187,5.643A4.127,4.127,0,0,1,6.627,35.6a4.176,4.176,0,0,1,5.586-1.058l1.209-1.257A14.258,14.258,0,0,1,9.937,24.83a13.171,13.171,0,0,0-1.477.021c-.144.017-.319.257-.38.43a4.139,4.139,0,0,1-8.054-.859A4.168,4.168,0,0,1,3.112,20a4.067,4.067,0,0,1,4.851,2.489c.214.588.479.79,1.064.7a6.451,6.451,0,0,1,.91-.007,14.363,14.363,0,0,1,3.609-8.595,14.094,14.094,0,0,0-1.116-.966.682.682,0,0,0-.567.026A4.135,4.135,0,0,1,6.748,7.4,4.219,4.219,0,0,1,12.3,6.573a4.108,4.108,0,0,1,1.339,5.29c-.06.116-.125.229-.178.327l1.261,1.264A14.087,14.087,0,0,1,21.935,10.1c.037-.006.073-.016.109-.023.361-.063.963-.031,1.033-.208a3.251,3.251,0,0,0,.073-1.422c-.012-.135-.276-.294-.455-.362a4.014,4.014,0,0,1-2.776-3.4A3.9,3.9,0,0,1,21.812.677,3.9,3.9,0,0,1,26.145.639a3.9,3.9,0,0,1,1.978,3.807,3.86,3.86,0,0,1-2.589,3.529c-.582.223-.8.469-.715,1.058a6.809,6.809,0,0,1,.007.915,14.322,14.322,0,0,1,8.507,3.535c.073-.056.13-.1.184-.142.711-.579,1.137-1.073.632-2.18a3.822,3.822,0,0,1,1.488-4.534,4.257,4.257,0,0,1,4.825.012,4.1,4.1,0,0,1,1.506,4.615,3.985,3.985,0,0,1-3.823,2.809,7.54,7.54,0,0,1-2.038-.461c-.266-.083-.417-.116-.623.1-.308.321-.658.6-1,.908a14.187,14.187,0,0,1,3.335,6.707c.1.492.113,1,.224,1.488.034.151.256.261.4.384.021.018.073,0,.109,0a1.293,1.293,0,0,0,1.633-.958A3.974,3.974,0,0,1,44.863,20a4.131,4.131,0,0,1-.349,8.092,4.03,4.03,0,0,1-4.44-2.519c-.235-.657-.549-.817-1.151-.747a7.981,7.981,0,0,1-.878.005,14.388,14.388,0,0,1-3.606,8.6,12.06,12.06,0,0,0,1.1.942.739.739,0,0,0,.616-.021,4.136,4.136,0,1,1-.879,6.767,4.07,4.07,0,0,1-.906-4.941c.171-.324.163-.514-.109-.753-.307-.268-.575-.582-.9-.914a14.34,14.34,0,0,1-8.547,3.556M36.43,24.009a12.4,12.4,0,1,0-12.391,12.4,12.416,12.416,0,0,0,12.391-12.4M35.588,9.942A2.475,2.475,0,1,0,38.11,7.5a2.461,2.461,0,0,0-2.522,2.443m-23.125,0a2.474,2.474,0,1,0-2.448,2.517,2.469,2.469,0,0,0,2.448-2.517M26.5,4.173A2.47,2.47,0,1,0,24,6.646a2.478,2.478,0,0,0,2.5-2.472M4.146,26.479a2.47,2.47,0,1,0-2.453-2.517,2.474,2.474,0,0,0,2.453,2.517m39.761-4.94A2.47,2.47,0,1,0,46.358,24a2.47,2.47,0,0,0-2.452-2.462M26.5,43.9a2.47,2.47,0,1,0-2.471,2.443A2.472,2.472,0,0,0,26.5,43.9M9.972,40.5a2.462,2.462,0,1,0-2.457-2.489A2.431,2.431,0,0,0,9.972,40.5m30.564-2.4A2.474,2.474,0,1,0,35.59,38a2.474,2.474,0,0,0,4.946.091" transform="translate(0 0)" fill="#0d1b3b"/>
    <path id="Trazado_622" data-name="Trazado 622" d="M118.723,129.306a10.74,10.74,0,1,1,10.713,10.74,10.738,10.738,0,0,1-10.713-10.74m11.605-4.135c-.117-.676.172-1.622-.857-1.627-1.061-.005-.751.977-.853,1.592-2.235.188-3.241.877-3.256,2.337a3.256,3.256,0,0,0,.493,1.661c.613.984,1.678,1.044,2.753,1v1.646c-.756,0-1.478,0-2.2,0-.7,0-1.087.317-1.075.852.012.518.382.805,1.055.809.737,0,1.473,0,2.222,0,.091.692-.169,1.6.814,1.626,1.071.029.795-.939.9-1.632.343,0,.657.017.968,0a2.489,2.489,0,0,0,2.3-2.265,2.463,2.463,0,0,0-1.839-2.6c-.356-.085-.741-.041-1.108-.095-.127-.019-.332-.148-.339-.239-.035-.454-.016-.911-.016-1.4.811,0,1.535.005,2.26,0,.662-.006,1.041-.311,1.046-.826s-.377-.829-1.031-.833c-.74,0-1.479,0-2.235,0" transform="translate(-105.438 -105.297)" fill="#0d1b3b"/>
    <path id="Trazado_623" data-name="Trazado 623" d="M194.649,192.462c0,.489,0,.927,0,1.365,0,.083-.066.237-.093.235a3.333,3.333,0,0,1-1.214-.165c-.2-.1-.318-.572-.283-.854.049-.4.4-.588.823-.582.237,0,.473,0,.772,0" transform="translate(-171.447 -170.924)" fill="#0d1b3b"/>
    <path id="Trazado_624" data-name="Trazado 624" d="M221.936,223.455c0-.37-.02-.664.006-.955s-.189-.7.4-.7c.785,0,1.2.234,1.235.79a.784.784,0,0,1-.744.859c-.273.024-.549,0-.9,0" transform="translate(-197.09 -196.982)" fill="#0d1b3b"/>
  </g>
</svg>
