<svg id="Grupo_158" data-name="Grupo 158" xmlns="http://www.w3.org/2000/svg" xmlns:xlink="http://www.w3.org/1999/xlink" width="15.623" height="13.882" viewBox="0 0 15.623 13.882">
  <defs>
    <clipPath id="clip-path">
      <rect id="Rectángulo_201" data-name="Rectángulo 201" width="15.623" height="13.882" fill="#d8d8d8"/>
    </clipPath>
  </defs>
  <g id="Grupo_157" data-name="Grupo 157" clip-path="url(#clip-path)">
    <path id="Trazado_631" data-name="Trazado 631" d="M7.812,85.4H2.1A2.032,2.032,0,0,1,.055,83.8a1.759,1.759,0,0,1-.052-.4q-.005-2.45,0-4.9A.879.879,0,0,1,.876,77.6a.859.859,0,0,1,.857.827c.007.113.007.228.007.341q0,2.279,0,4.559c0,.229.094.331.322.335.172,0,.345,0,.517,0H13.495c.29,0,.387-.1.387-.385q0-2.362,0-4.725a.9.9,0,0,1,.382-.791.859.859,0,0,1,1.336.564,1.171,1.171,0,0,1,.02.213q0,2.4,0,4.793a2.039,2.039,0,0,1-1.846,2.055,7.691,7.691,0,0,1-.79.011H7.812Z" transform="translate(0 -71.521)" fill="#d8d8d8"/>
    <path id="Trazado_632" data-name="Trazado 632" d="M63.864,2.954c-.233.226-.441.432-.652.633a.789.789,0,0,1-.686.232.854.854,0,0,1-.711-.566.77.77,0,0,1,.177-.866Q63.05,1.313,64.129.259a.828.828,0,0,1,1.214.013c.684.678,1.362,1.362,2.043,2.043a.983.983,0,0,1,.287.522.868.868,0,0,1-.679.963.845.845,0,0,1-.79-.23c-.189-.179-.368-.368-.552-.552-.015-.015-.034-.027-.066-.053,0,.079,0,.142,0,.205,0,1.871,0,3.742,0,5.613a.884.884,0,0,1-.61.868.865.865,0,0,1-1.114-.785c-.01-.82,0-1.64,0-2.46q0-1.674,0-3.348v-.1" transform="translate(-56.912 -0.001)" fill="#d8d8d8"/>
  </g>
</svg>
