<svg id="Grupo_176" data-name="Grupo 176" xmlns="http://www.w3.org/2000/svg" xmlns:xlink="http://www.w3.org/1999/xlink" width="12.667" height="13.57" viewBox="0 0 12.667 13.57">
  <defs>
    <clipPath id="clip-path">
      <rect id="Rectángulo_233" data-name="Rectángulo 233" width="12.667" height="13.57" fill="#0d1b3b"/>
    </clipPath>
  </defs>
  <g id="Grupo_175" data-name="Grupo 175" clip-path="url(#clip-path)">
    <path id="Trazado_684" data-name="Trazado 684" d="M12.51,214.113H.16A.157.157,0,0,1,0,213.957c0-.262-.006-.522,0-.783A5.446,5.446,0,0,1,.8,210.359a4.739,4.739,0,0,1,2.6-1.948,9.743,9.743,0,0,1,3.985-.379,7.177,7.177,0,0,1,2.54.658,4.576,4.576,0,0,1,2.634,3.678c.075.521.072,1.054.1,1.582v0a.156.156,0,0,1-.157.161" transform="translate(0 -200.543)" fill="#0d1b3b"/>
    <path id="Trazado_685" data-name="Trazado 685" d="M85.129,7.116A3.259,3.259,0,0,1,82.35,5.127,3.589,3.589,0,0,1,83.04.916a3.271,3.271,0,0,1,3.437-.71,3.141,3.141,0,0,1,2.195,2.6,3.711,3.711,0,0,1-1.647,3.829,3.359,3.359,0,0,1-1.9.479" transform="translate(-79.03 0)" fill="#0d1b3b"/>
  </g>
</svg>
