<svg xmlns="http://www.w3.org/2000/svg" xmlns:xlink="http://www.w3.org/1999/xlink" width="82" height="37" viewBox="0 0 82 37">
  <defs>
    <clipPath id="clip-path">
      <rect id="Rect치ngulo_26" data-name="Rect치ngulo 26" width="82" height="37" transform="translate(36 840)" fill="#fff"/>
    </clipPath>
    <clipPath id="clip-path-2">
      <rect id="Rect치ngulo_29" data-name="Rect치ngulo 29" width="21.711" height="21.711" transform="translate(0 0)" fill="#0d1b3b"/>
    </clipPath>
  </defs>
  <g id="Enmascarar_grupo_3" data-name="Enmascarar grupo 3" transform="translate(-36 -840)" clip-path="url(#clip-path)">
    <g id="Grupo_24" data-name="Grupo 24" transform="translate(64.644 847.654)">
      <g id="Grupo_23" data-name="Grupo 23" clip-path="url(#clip-path-2)">
        <path id="Trazado_32" data-name="Trazado 32" d="M10.855,0A10.856,10.856,0,1,0,21.711,10.856,10.868,10.868,0,0,0,10.855,0m8.469,9.7h-3.3a18.41,18.41,0,0,0-1.429-6.534A8.565,8.565,0,0,1,19.324,9.7m-8.469,9.706c-1.064,0-2.628-2.912-2.862-7.4h5.725c-.234,4.493-1.8,7.4-2.863,7.4M7.993,9.7c.234-4.493,1.8-7.4,2.862-7.4s2.629,2.912,2.863,7.4ZM7.119,3.171A18.388,18.388,0,0,0,5.69,9.7h-3.3A8.563,8.563,0,0,1,7.119,3.171M2.387,12.006h3.3A18.383,18.383,0,0,0,7.119,18.54a8.561,8.561,0,0,1-4.732-6.534m12.2,6.534a18.4,18.4,0,0,0,1.429-6.534h3.3a8.564,8.564,0,0,1-4.732,6.534" fill="#0d1b3b"/>
      </g>
    </g>
  </g>
</svg>
