<svg width="120" height="120" viewBox="0 0 120 120" fill="none" xmlns="http://www.w3.org/2000/svg">
<rect x="1.395" y="1.395" width="117.21" height="117.21" rx="58.605" stroke="#6263E6" stroke-width="2.79"/>
<circle cx="60" cy="60" r="24.75" fill="#6EF1B9"/>
<mask id="mask0_9748_6296" style="mask-type:alpha" maskUnits="userSpaceOnUse" x="24" y="24" width="72" height="72">
<rect x="24" y="24" width="72" height="72" fill="#D9D9D9"/>
</mask>
<g mask="url(#mask0_9748_6296)">
<path d="M60 73.3845C60.523 73.3845 60.9615 73.2075 61.3155 72.8535C61.6695 72.5 61.8465 72.0617 61.8465 71.5387C61.8465 71.0152 61.6695 70.5768 61.3155 70.2233C60.9615 69.8693 60.523 69.6922 60 69.6922C59.477 69.6922 59.0385 69.8693 58.6845 70.2233C58.3305 70.5768 58.1535 71.0152 58.1535 71.5387C58.1535 72.0617 58.3305 72.5 58.6845 72.8535C59.0385 73.2075 59.477 73.3845 60 73.3845ZM58.5 63.4613H61.5V45.4613H58.5V63.4613ZM60.0098 87C56.2763 87 52.766 86.2915 49.479 84.8745C46.1925 83.4575 43.3335 81.5345 40.902 79.1055C38.4705 76.6765 36.5457 73.82 35.1277 70.536C33.7092 67.2525 33 63.7437 33 60.0098C33 56.2763 33.7085 52.766 35.1255 49.479C36.5425 46.1925 38.4655 43.3335 40.8945 40.902C43.3235 38.4705 46.18 36.5457 49.464 35.1277C52.7475 33.7092 56.2563 33 59.9902 33C63.7237 33 67.234 33.7085 70.521 35.1255C73.8075 36.5425 76.6665 38.4655 79.098 40.8945C81.5295 43.3235 83.4543 46.18 84.8723 49.464C86.2908 52.7475 87 56.2563 87 59.9902C87 63.7237 86.2915 67.234 84.8745 70.521C83.4575 73.8075 81.5345 76.6665 79.1055 79.098C76.6765 81.5295 73.82 83.4543 70.536 84.8723C67.2525 86.2908 63.7437 87 60.0098 87ZM60 84C66.7 84 72.375 81.675 77.025 77.025C81.675 72.375 84 66.7 84 60C84 53.3 81.675 47.625 77.025 42.975C72.375 38.325 66.7 36 60 36C53.3 36 47.625 38.325 42.975 42.975C38.325 47.625 36 53.3 36 60C36 66.7 38.325 72.375 42.975 77.025C47.625 81.675 53.3 84 60 84Z" fill="#6D6EFF"/>
</g>
</svg>
