<svg width="120" height="120" viewBox="0 0 120 120" fill="none" xmlns="http://www.w3.org/2000/svg">
<rect x="1.39535" y="1.39535" width="117.209" height="117.209" rx="58.6047" stroke="#6D6EFF" stroke-width="2.7907"/>
<circle cx="68.308" cy="43.3852" r="2.76895" fill="#6EF1B9"/>
<circle cx="41.9999" cy="28.549" r="2.96673" fill="#6EF1B9"/>
<ellipse cx="91.4506" cy="51.2968" rx="2.96673" ry="2.76895" fill="#6EF1B9"/>
<mask id="mask0_9748_6072" style="mask-type:luminance" maskUnits="userSpaceOnUse" x="24" y="24" width="73" height="73">
<path d="M24.0005 24.0005H96.0005V96.0005H24.0005V24.0005Z" fill="white"/>
</mask>
<g mask="url(#mask0_9748_6072)">
<path d="M91.9802 63.4789C84.0329 59.2556 74.569 60.7567 68.3125 66.5364" stroke="#6D6EFF" stroke-width="2.7907" stroke-miterlimit="10" stroke-linecap="round" stroke-linejoin="round"/>
<path d="M55.3597 31.0324C58.9814 37.8479 57.8484 45.923 53.1235 51.4573" stroke="#6D6EFF" stroke-width="2.7907" stroke-miterlimit="10" stroke-linecap="round" stroke-linejoin="round"/>
<path d="M74.8937 77.3338L28.1597 94.4649C26.5248 95.0643 24.9367 93.4763 25.536 91.8414L42.6671 45.1072C43.1812 43.7048 44.9768 43.3089 46.033 44.3651L75.6358 73.9681C76.692 75.0244 76.2962 76.8197 74.8937 77.3338Z" stroke="#6D6EFF" stroke-width="2.7907" stroke-miterlimit="10" stroke-linecap="round" stroke-linejoin="round"/>
<path d="M39.3848 54.7921L47.8217 63.229" stroke="#6D6EFF" stroke-width="2.7907" stroke-miterlimit="10" stroke-linecap="round" stroke-linejoin="round"/>
<path d="M36.9487 61.7461L58.2556 83.053" stroke="#6D6EFF" stroke-width="2.7907" stroke-miterlimit="10" stroke-linecap="round" stroke-linejoin="round"/>
<path d="M32.3179 74.1883L45.8146 87.6851" stroke="#6D6EFF" stroke-width="2.7907" stroke-miterlimit="10" stroke-linecap="round" stroke-linejoin="round"/>
<path d="M29.5713 80.8346L39.1664 90.4297" stroke="#6D6EFF" stroke-width="2.7907" stroke-miterlimit="10" stroke-linecap="round" stroke-linejoin="round"/>
<path d="M66.4116 33.8167C66.4116 31.8606 67.9973 30.2749 69.9533 30.2749C71.9094 30.2749 73.495 28.6893 73.495 26.7332" stroke="#6D6EFF" stroke-width="2.7907" stroke-miterlimit="10" stroke-linecap="round" stroke-linejoin="round"/>
<path d="M86.297 39.6821C84.2513 39.6821 82.5931 41.3403 82.5931 43.3859C82.5931 45.4315 80.9348 47.0898 78.8893 47.0898" stroke="#6D6EFF" stroke-width="2.7907" stroke-miterlimit="10" stroke-linecap="round" stroke-linejoin="round"/>
<path d="M94.5946 51.2091C94.5946 52.9175 93.2096 54.3025 91.5012 54.3025C89.7927 54.3025 88.4077 52.9175 88.4077 51.2091C88.4077 49.5006 89.7927 48.1156 91.5012 48.1156C93.2096 48.1156 94.5946 49.5006 94.5946 51.2091Z" stroke="#6D6EFF" stroke-width="2.7907" stroke-miterlimit="10" stroke-linecap="round" stroke-linejoin="round"/>
<path d="M71.4042 43.3868C71.4042 45.0952 70.0191 46.4802 68.3107 46.4802C66.6023 46.4802 65.2173 45.0952 65.2173 43.3868C65.2173 41.6784 66.6023 40.2934 68.3107 40.2934C70.0191 40.2934 71.4042 41.6784 71.4042 43.3868Z" stroke="#6D6EFF" stroke-width="2.7907" stroke-miterlimit="10" stroke-linecap="round" stroke-linejoin="round"/>
<path d="M45.0931 28.5006C45.0931 30.209 43.7081 31.594 41.9997 31.594C40.2913 31.594 38.9062 30.209 38.9062 28.5006C38.9062 26.7921 40.2913 25.4071 41.9997 25.4071C43.7081 25.4071 45.0931 26.7921 45.0931 28.5006Z" stroke="#6D6EFF" stroke-width="2.7907" stroke-miterlimit="10" stroke-linecap="round" stroke-linejoin="round"/>
<path d="M87.9663 75.6882L86.6406 74.3626" stroke="#6D6EFF" stroke-width="2.7907" stroke-miterlimit="10" stroke-linecap="round" stroke-linejoin="round"/>
<path d="M93.2676 80.9915L94.5933 82.3171" stroke="#6D6EFF" stroke-width="2.7907" stroke-miterlimit="10" stroke-linecap="round" stroke-linejoin="round"/>
<path d="M93.2676 75.6882L94.5933 74.3626" stroke="#6D6EFF" stroke-width="2.7907" stroke-miterlimit="10" stroke-linecap="round" stroke-linejoin="round"/>
<path d="M87.9663 80.9915L86.6406 82.3171" stroke="#6D6EFF" stroke-width="2.7907" stroke-miterlimit="10" stroke-linecap="round" stroke-linejoin="round"/>
<path d="M93.2676 26.7327L94.5933 25.407" stroke="#6D6EFF" stroke-width="2.7907" stroke-miterlimit="10" stroke-linecap="round" stroke-linejoin="round"/>
<path d="M87.9663 32.0361L86.6406 33.3618" stroke="#6D6EFF" stroke-width="2.7907" stroke-miterlimit="10" stroke-linecap="round" stroke-linejoin="round"/>
<path d="M93.2676 32.0361L94.5933 33.3618" stroke="#6D6EFF" stroke-width="2.7907" stroke-miterlimit="10" stroke-linecap="round" stroke-linejoin="round"/>
<path d="M87.9663 26.7327L86.6406 25.407" stroke="#6D6EFF" stroke-width="2.7907" stroke-miterlimit="10" stroke-linecap="round" stroke-linejoin="round"/>
<path d="M56.7734 72.1793L65.2104 80.6162" stroke="#6D6EFF" stroke-width="2.7907" stroke-miterlimit="10" stroke-linecap="round" stroke-linejoin="round"/>
<path d="M64.0591 62.3916L68.7636 57.687" stroke="#6D6EFF" stroke-width="2.7907" stroke-miterlimit="10" stroke-linecap="round" stroke-linejoin="round"/>
<path d="M73.809 52.6439L72.7896 53.6633" stroke="#6D6EFF" stroke-width="2.7907" stroke-miterlimit="10" stroke-linecap="round" stroke-linejoin="round"/>
</g>
</svg>
