<svg width="235" height="269" viewBox="0 0 235 269" fill="none" xmlns="http://www.w3.org/2000/svg">
<path d="M116.1 65.5946C123.823 65.0607 130.598 68.2641 134.934 74.4039L189.948 161.162C202.007 184.119 170.029 202.939 155.395 181.583L117.997 122.721L80.192 182.117C73.8235 191.327 61.0864 193.729 51.8723 187.323C42.7938 181.049 40.4903 168.236 47.2653 159.427L52.2788 162.63C49.0268 167.302 48.4848 173.175 51.4658 178.113C56.3439 186.388 68.1324 187.189 74.3655 179.982C89.135 157.291 103.363 134.2 118.132 111.376L160.544 178.113C170.435 192.528 191.438 181.583 185.612 165.7C167.319 136.069 148.349 106.705 129.785 77.3403C124.365 69.8658 113.119 69.4653 107.157 76.5395C91.5741 100.565 76.398 124.857 61.0864 149.149C60.5444 149.55 58.9184 148.615 58.3764 148.215C57.6989 147.814 55.9374 146.346 56.2084 145.545L101.601 74.0035C104.989 69.1984 110.544 65.995 116.506 65.5946H116.1Z" fill="white"/>
<path d="M189.403 151.153C189.267 151.153 188.996 151.019 188.861 150.886C187.641 149.418 186.693 147.149 185.609 145.68C186.693 141.543 186.693 137.538 184.525 133.801L129.647 47.3101C124.498 39.7021 113.116 39.0347 107.018 45.9754C87.9125 75.74 68.9424 105.505 50.2433 135.536C44.2813 151.153 65.2839 162.231 75.1755 148.35L117.587 81.3459H117.994L161.083 149.151C163.928 152.888 168.264 154.757 172.872 154.757L176.259 160.362C168.129 161.831 159.728 158.36 155.392 151.553L117.858 92.4242L80.0535 151.954C65.0129 172.242 34.2543 153.822 45.6363 131.399L101.869 42.772C109.593 33.0284 124.769 32.628 133.034 41.7042C152.411 71.2019 170.974 101.367 190.08 131.265C192.926 136.604 193.197 142.877 190.893 148.483C190.758 148.884 189.674 151.153 189.538 151.286L189.403 151.153Z" fill="#02C998"/>
<path d="M150.234 223.851C150.234 217.641 155.088 213.19 161.615 213.19C168.141 213.19 168.253 214.509 170.261 216.872L167.137 219.729C165.743 218.136 163.958 217.311 161.838 217.311C157.933 217.311 155.143 220.004 155.143 223.906C155.143 227.807 157.933 230.5 161.838 230.5C165.743 230.5 165.687 229.676 167.137 228.027L170.261 230.884C168.309 233.302 165.241 234.566 161.615 234.566C155.088 234.566 150.234 230.115 150.234 223.906V223.851ZM187.332 225.115V234.182H182.981V232.203C182.088 233.632 180.414 234.401 178.071 234.401C174.278 234.401 172.047 232.313 172.047 229.566C172.047 226.818 174.055 224.785 178.964 224.785H182.702C182.702 222.807 181.474 221.653 178.964 221.653C176.454 221.653 175.505 222.202 174.334 223.136L172.66 219.894C174.445 218.63 177.012 217.971 179.633 217.971C184.543 217.971 187.388 220.224 187.388 225.005L187.332 225.115ZM182.702 229.181V227.532H179.466C177.29 227.532 176.565 228.357 176.565 229.401C176.565 230.445 177.569 231.324 179.187 231.324C180.805 231.324 182.088 230.61 182.646 229.181H182.702ZM190.01 232.698L191.572 229.401C193.022 230.335 195.198 230.939 197.15 230.939C199.103 230.939 200.107 230.39 200.107 229.511C200.107 226.928 190.344 229.566 190.344 223.246C190.344 216.927 193.078 218.136 197.82 218.136C202.562 218.136 202.506 218.63 204.012 219.509L202.45 222.807C200.888 221.927 199.27 221.598 197.82 221.598C195.7 221.598 194.807 222.257 194.807 223.081C194.807 225.774 204.57 223.191 204.57 229.456C204.57 235.72 201.781 234.511 196.983 234.511C192.185 234.511 191.516 233.797 190.01 232.808V232.698ZM223.983 225.115V234.182H219.297V225.774C219.297 223.191 218.07 222.037 216.006 222.037C213.942 222.037 212.157 223.411 212.157 226.323V234.182H207.471V212.256H212.157V219.949C213.44 218.685 215.225 218.081 217.289 218.081C221.083 218.081 223.983 220.279 223.983 225.115Z" fill="#00C997"/>
<path d="M35.2023 212.255C35.2023 212.09 35.7043 211.87 35.8717 211.815C36.4296 211.705 38.0474 211.76 38.6052 211.815C38.9399 211.815 39.3304 211.98 39.3862 212.364V233.246C39.3862 233.521 39.2747 233.851 38.9957 233.96C38.7168 234.07 36.0948 234.07 35.7601 233.96C35.1465 233.741 35.258 232.806 35.258 232.312C32.7477 235.005 27.5038 235.059 25.1608 232.147C22.8177 229.18 22.8177 222.53 25.2165 219.618C27.0575 217.31 30.6836 216.925 33.3055 218.079L35.1465 219.343V212.255H35.2023ZM30.8509 220.827C26.7786 221.377 26.8901 229.509 29.9584 230.718C32.6919 231.817 34.9233 229.949 35.2023 227.256C35.4812 224.234 34.9791 220.223 30.8509 220.772V220.827Z" fill="white"/>
<path d="M76.5409 232.257C75.5367 233.301 74.3094 234.016 72.859 234.291C69.456 234.895 65.0489 233.082 65.4952 229.07C65.9973 224.454 72.859 224.344 76.3177 223.685C76.8198 220.882 74.1421 219.618 71.799 220.717C70.9065 221.157 70.5717 222.311 70.0697 222.421C69.6792 222.531 67.0572 222.476 66.7783 222.311C65.8299 221.707 67.6709 219.454 68.2287 219.014C71.9664 216.102 80.3901 217.036 80.6133 222.806V233.576C80.5017 233.796 80.167 233.961 79.9438 234.016C79.5533 234.071 77.3219 234.071 77.0429 234.016C76.3735 233.796 76.6524 232.752 76.5967 232.202L76.5409 232.257ZM76.3735 226.432C74.5884 226.652 72.1895 226.707 70.6275 227.641C68.3961 228.905 69.6234 231.158 71.9106 231.433C75.0904 231.763 76.5967 229.29 76.3735 226.487V226.432ZM17.3517 232.257C16.3476 233.301 15.1761 234.016 13.6699 234.291C10.0438 234.895 5.4135 232.807 6.41765 228.576C7.36601 224.399 13.6699 224.289 17.0728 223.74C17.5749 220.992 15.2319 219.618 12.7773 220.663C11.6616 221.102 11.8289 221.542 11.2153 222.201C10.8805 222.586 8.70489 222.531 8.14702 222.476C6.30608 222.311 8.09124 219.893 8.81646 219.234C12.4426 216.156 21.0894 216.926 21.4241 222.751V233.631C21.3126 233.851 21.0894 234.016 20.8663 234.071C20.5316 234.126 18.077 234.126 17.798 234.071C17.1286 233.851 17.4075 232.807 17.3517 232.257ZM17.2402 226.432C15.455 226.707 13.112 226.707 11.4942 227.641C9.31853 228.85 10.49 231.158 12.7773 231.433C15.9013 231.763 17.5191 229.29 17.2402 226.487V226.432ZM46.0816 227.147C45.8027 229.949 48.0899 232.312 50.9908 231.158C52.0507 230.719 52.4412 229.565 53.4454 229.455C53.9475 229.4 56.0116 229.4 56.4578 229.455C57.8525 229.894 55.8442 232.092 55.2863 232.532C52.1065 235.115 46.0816 235.06 43.4039 231.763C41.2282 229.07 41.1167 223.85 42.846 220.882C45.6353 216.047 53.9475 216.211 56.4578 221.212C57.0715 222.421 57.6294 224.839 57.462 226.158C57.462 226.432 57.2389 227.092 56.9041 227.092H46.1374L46.0816 227.147ZM52.9433 224.454C53.1665 218.959 45.7469 218.904 46.0258 224.454H52.9433ZM87.475 219.728C91.0453 215.937 97.628 216.871 98.9111 222.256C99.6921 225.553 98.9111 229.73 99.1901 233.137C99.1901 233.411 98.9669 233.796 98.7438 233.906C98.4648 234.071 96.0102 234.071 95.5082 234.016C94.8945 233.961 94.783 233.686 94.7272 233.137C94.4482 230.224 95.0061 226.927 94.7272 224.015C94.3367 219.728 88.4233 219.838 87.7539 223.575C87.2518 226.323 87.977 230.224 87.7539 233.137C87.7539 233.631 87.6423 233.961 87.0844 234.016C86.6939 234.071 84.072 234.071 83.8489 234.016C83.5699 233.906 83.291 233.356 83.3468 233.027V218.464C83.4584 218.19 83.6815 217.86 84.0162 217.75C84.4067 217.695 86.5266 217.695 86.9171 217.75C87.8097 217.97 87.4192 219.014 87.475 219.673V219.728ZM133.331 217.475C140.528 217.146 142.982 222.806 141.588 229.015C139.97 236.324 127.808 236.379 126.135 229.015C124.796 223.3 126.748 217.805 133.331 217.475ZM131.267 221.597C129.928 223.025 129.928 227.641 130.653 229.345C131.881 232.092 135.953 231.983 137.069 229.125C137.571 227.806 137.571 223.905 136.957 222.586C136.009 220.498 132.885 219.948 131.267 221.652V221.597Z" fill="white"/>
<path d="M112.411 220.444C112.411 220.774 112.076 221.158 111.742 221.158H107.725V228.742C107.725 228.907 108.171 229.841 108.283 230.006C109.176 231.05 111.965 230.006 112.523 230.775C112.69 230.995 112.69 232.973 112.634 233.358C112.634 233.742 112.355 233.962 111.965 234.017C111.184 234.127 109.343 234.072 108.506 234.017C101.589 233.468 103.932 225.774 103.541 221.158H101.031C100.64 221.158 100.417 220.719 100.361 220.389C100.361 219.949 100.25 217.751 100.808 217.751H103.597C103.764 216.103 103.43 214.179 103.597 212.586C103.653 212.036 103.876 211.872 104.378 211.817C104.88 211.762 107.112 211.762 107.446 211.926C107.558 211.926 107.781 212.256 107.781 212.311V217.696H111.909C112.076 217.696 112.411 218.136 112.467 218.301C112.523 218.686 112.467 219.949 112.467 220.389L112.411 220.444Z" fill="white"/>
<path d="M112.633 218.246C112.801 218.081 112.856 217.806 113.191 217.751C113.582 217.696 115.757 217.861 115.813 217.751C115.98 216.103 115.646 214.179 115.813 212.586C115.869 212.036 116.092 211.872 116.594 211.817C117.096 211.762 119.328 211.762 119.662 211.926C119.774 211.926 119.997 212.256 119.997 212.311V217.696H124.125C124.237 217.696 124.627 218.026 124.683 218.136C124.795 218.411 124.739 220.554 124.571 220.774L124.014 221.103H119.997V228.687C119.997 228.852 120.443 229.786 120.555 229.951C121.447 230.995 124.237 229.951 124.795 230.72C124.962 230.94 124.962 233.303 124.795 233.577C124.683 233.797 124.404 233.907 124.181 233.962C122.228 234.237 118.714 234.017 117.263 232.643C114.697 230.17 116.092 224.346 115.701 221.103H113.191C112.801 221.103 112.689 220.719 112.522 220.499V218.191L112.633 218.246ZM59.9711 211.872C60.3058 211.762 62.5372 211.817 62.8719 211.872C63.1509 211.872 63.4856 212.091 63.5414 212.421V233.413C63.5414 233.742 63.3182 234.017 62.9835 234.072C62.593 234.127 60.3058 234.127 59.9153 234.072C59.5806 234.017 59.3574 233.742 59.3574 233.413V212.751C59.3574 212.421 59.6364 211.926 59.9153 211.872H59.9711Z" fill="white"/>
<path d="M223.982 215.608C220.97 215.608 218.515 213.191 218.515 210.223C218.515 207.256 220.97 204.838 223.982 204.838C226.995 204.838 229.449 207.256 229.449 210.223C229.449 213.191 226.995 215.608 223.982 215.608ZM223.982 205.827C221.528 205.827 219.575 207.805 219.575 210.168C219.575 212.531 221.584 214.509 223.982 214.509C226.381 214.509 228.39 212.531 228.39 210.168C228.39 207.805 226.381 205.827 223.982 205.827Z" fill="white"/>
<path d="M222.31 207.42C222.701 207.365 223.203 207.31 223.705 207.31C224.486 207.31 224.988 207.475 225.323 207.75C225.602 207.969 225.769 208.354 225.769 208.794C225.769 209.508 225.323 210.003 224.709 210.222C225.155 210.387 225.379 210.772 225.546 211.376C225.713 212.146 225.881 212.695 225.992 212.915H225.267C225.155 212.75 225.044 212.256 224.876 211.596C224.709 210.827 224.43 210.552 223.761 210.497H223.091V212.915H222.366V207.42H222.31ZM223.036 209.948H223.761C224.542 209.948 225.044 209.508 225.044 208.904C225.044 208.299 224.542 207.86 223.761 207.86C223.426 207.86 223.147 207.86 223.036 207.915V209.948Z" fill="white"/>
</svg>
