<svg id="Grupo_44" data-name="Grupo 44" xmlns="http://www.w3.org/2000/svg" xmlns:xlink="http://www.w3.org/1999/xlink" width="177.963" height="219.234" viewBox="0 0 177.963 219.234">
  <defs>
    <clipPath id="clip-path">
      <rect id="Rectángulo_43" data-name="Rectángulo 43" width="177.963" height="219.234" fill="none"/>
    </clipPath>
  </defs>
  <g id="Grupo_43" data-name="Grupo 43" clip-path="url(#clip-path)">
    <path id="Trazado_60" data-name="Trazado 60" d="M7.7,276.828a8.813,8.813,0,0,1-3.914-.854,7.173,7.173,0,0,1-2.769-2.29,5.7,5.7,0,0,1,1.333-7.87A13.893,13.893,0,0,1,8.577,263.5l5.7-.833V261.8a3.871,3.871,0,0,0-.875-2.707,3.921,3.921,0,0,0-3-.958,4.437,4.437,0,0,0-2.436.6,3.719,3.719,0,0,0-1.4,1.6,1.06,1.06,0,0,1-.958.542H2.332a.886.886,0,0,1-.687-.25.947.947,0,0,1-.229-.666,4.248,4.248,0,0,1,.541-1.624,6.155,6.155,0,0,1,1.582-1.853,9.441,9.441,0,0,1,2.789-1.52,12.049,12.049,0,0,1,4.122-.624,13.306,13.306,0,0,1,4.435.645,7.661,7.661,0,0,1,2.894,1.728,6.56,6.56,0,0,1,1.583,2.54,9.445,9.445,0,0,1,.5,3.081v13.075a.994.994,0,0,1-1,1H15.49a.944.944,0,0,1-.729-.291,1,1,0,0,1-.271-.708v-1.624a6.364,6.364,0,0,1-1.457,1.478,7.807,7.807,0,0,1-2.228,1.125,9.855,9.855,0,0,1-3.1.437m1.416-3.956a5.592,5.592,0,0,0,2.644-.624,4.442,4.442,0,0,0,1.874-1.936A7.1,7.1,0,0,0,14.323,267v-.874l-4.163.666A8.953,8.953,0,0,0,6.5,268a2.432,2.432,0,0,0-1.208,2.041A2.292,2.292,0,0,0,5.85,271.6a3.364,3.364,0,0,0,1.436.958,5.41,5.41,0,0,0,1.833.312" transform="translate(0 -57.594)" fill="#081b3d"/>
    <path id="Trazado_61" data-name="Trazado 61" d="M38.193,274.634a9.34,9.34,0,0,1-3.81-.729,7.208,7.208,0,0,1-2.728-2.062A9.561,9.561,0,0,1,29.99,268.7a14.753,14.753,0,0,1-.666-3.976q-.043-.75-.042-1.354c0-.4.013-.853.042-1.353a14.858,14.858,0,0,1,.645-3.872A9.347,9.347,0,0,1,31.634,255a7.5,7.5,0,0,1,2.748-2.1,9.1,9.1,0,0,1,3.81-.75,8.56,8.56,0,0,1,3.81.77,8.143,8.143,0,0,1,2.6,1.979v-9.244a1,1,0,0,1,.272-.708.943.943,0,0,1,.728-.292h3.54a1,1,0,0,1,1,1v27.565a.994.994,0,0,1-1,1h-3.29a.943.943,0,0,1-.728-.291,1,1,0,0,1-.272-.708v-1.541a8.183,8.183,0,0,1-2.643,2.123,8.674,8.674,0,0,1-4.019.833m1.541-4.456a4.492,4.492,0,0,0,2.789-.791,4.72,4.72,0,0,0,1.541-2.02,7.244,7.244,0,0,0,.541-2.519q.042-.75.042-1.6t-.042-1.6a6.016,6.016,0,0,0-.582-2.394,4.876,4.876,0,0,0-1.582-1.894,4.527,4.527,0,0,0-2.707-.75,4.5,4.5,0,0,0-2.769.77,4.341,4.341,0,0,0-1.478,2.02,9.465,9.465,0,0,0-.541,2.748q-.042,1.25,0,2.5a9.477,9.477,0,0,0,.541,2.748,4.339,4.339,0,0,0,1.478,2.019,4.493,4.493,0,0,0,2.769.77" transform="translate(-6.631 -55.4)" fill="#081b3d"/>
    <path id="Trazado_62" data-name="Trazado 62" d="M70.3,276.828a9.988,9.988,0,0,1-7.328-2.665q-2.708-2.664-2.916-7.579-.042-.415-.041-1.061a9.748,9.748,0,0,1,.041-1.02A12.385,12.385,0,0,1,61.5,259.09a8.767,8.767,0,0,1,3.519-3.518,10.869,10.869,0,0,1,5.288-1.228,10.707,10.707,0,0,1,5.663,1.395,8.847,8.847,0,0,1,3.455,3.873,13.316,13.316,0,0,1,1.166,5.726v.874a.964.964,0,0,1-.292.708,1.014,1.014,0,0,1-.749.292H65.722v.333a7.336,7.336,0,0,0,.562,2.685,4.641,4.641,0,0,0,1.541,1.978,4,4,0,0,0,2.435.75,4.62,4.62,0,0,0,3.248-1.166,5.355,5.355,0,0,0,.708-.75,2,2,0,0,1,.6-.6,1.749,1.749,0,0,1,.688-.1h3.581a.976.976,0,0,1,.687.25.7.7,0,0,1,.229.624,3.5,3.5,0,0,1-.687,1.624,8.106,8.106,0,0,1-1.853,1.874,10.4,10.4,0,0,1-3.018,1.52,13.117,13.117,0,0,1-4.143.6m-4.58-13.117h9.2v-.125a6.882,6.882,0,0,0-.541-2.832A4.483,4.483,0,0,0,72.8,258.84a4.408,4.408,0,0,0-6.558,1.914,7.109,7.109,0,0,0-.521,2.832Z" transform="translate(-13.591 -57.594)" fill="#081b3d"/>
    <path id="Trazado_63" data-name="Trazado 63" d="M91.213,274.218a1,1,0,0,1-1-1V245.654a.994.994,0,0,1,1-1H94.67a.994.994,0,0,1,1,1v27.565a1,1,0,0,1-1,1Z" transform="translate(-20.428 -55.4)" fill="#081b3d"/>
    <path id="Trazado_64" data-name="Trazado 64" d="M108.145,276.828a8.811,8.811,0,0,1-3.914-.854,7.173,7.173,0,0,1-2.769-2.29,5.7,5.7,0,0,1,1.333-7.87,13.893,13.893,0,0,1,6.225-2.311l5.7-.833V261.8a3.871,3.871,0,0,0-.874-2.707,3.922,3.922,0,0,0-3-.958,4.442,4.442,0,0,0-2.437.6,3.722,3.722,0,0,0-1.395,1.6,1.06,1.06,0,0,1-.958.542h-3.289a.885.885,0,0,1-.687-.25.947.947,0,0,1-.229-.666,4.258,4.258,0,0,1,.541-1.624,6.171,6.171,0,0,1,1.583-1.853,9.441,9.441,0,0,1,2.789-1.52,12.043,12.043,0,0,1,4.122-.624,13.306,13.306,0,0,1,4.435.645,7.661,7.661,0,0,1,2.894,1.728,6.561,6.561,0,0,1,1.583,2.54,9.446,9.446,0,0,1,.5,3.081v13.075a.994.994,0,0,1-1,1h-3.373a.943.943,0,0,1-.728-.291,1,1,0,0,1-.272-.708v-1.624a6.344,6.344,0,0,1-1.457,1.478,7.807,7.807,0,0,1-2.228,1.125,9.862,9.862,0,0,1-3.1.437m1.416-3.956a5.592,5.592,0,0,0,2.644-.624,4.442,4.442,0,0,0,1.874-1.936,7.1,7.1,0,0,0,.687-3.311v-.874l-4.163.666A8.953,8.953,0,0,0,106.938,268a2.433,2.433,0,0,0-1.208,2.041,2.3,2.3,0,0,0,.562,1.561,3.372,3.372,0,0,0,1.437.958,5.41,5.41,0,0,0,1.833.312" transform="translate(-22.744 -57.594)" fill="#081b3d"/>
    <path id="Trazado_65" data-name="Trazado 65" d="M131.853,276.412a1,1,0,0,1-1-1V255.759a.994.994,0,0,1,1-1h3.414a.994.994,0,0,1,1,1v1.708a8.47,8.47,0,0,1,6.954-3.124,8.3,8.3,0,0,1,4.414,1.146,7.609,7.609,0,0,1,2.894,3.227,11.262,11.262,0,0,1,1.02,5v11.7a1,1,0,0,1-1,1h-3.664a1,1,0,0,1-1-1V263.961a5.608,5.608,0,0,0-1.187-3.789,4.292,4.292,0,0,0-3.435-1.374,4.514,4.514,0,0,0-3.456,1.374,5.314,5.314,0,0,0-1.291,3.789v11.451a1,1,0,0,1-1,1Z" transform="translate(-29.631 -57.594)" fill="#081b3d"/>
    <path id="Trazado_66" data-name="Trazado 66" d="M171.465,274.218a9.163,9.163,0,0,1-4.206-.874,5.56,5.56,0,0,1-2.54-2.6,9.886,9.886,0,0,1-.833-4.31v-9.452H160.6a.994.994,0,0,1-1-1v-2.416a.994.994,0,0,1,1-1h3.289v-6.913a1,1,0,0,1,.271-.708.945.945,0,0,1,.729-.291h3.373a.994.994,0,0,1,1,1v6.913h5.2a.994.994,0,0,1,1,1v2.416a.994.994,0,0,1-1,1h-5.2v9.036a4.987,4.987,0,0,0,.6,2.665,2.288,2.288,0,0,0,2.1.958h2.873a1,1,0,0,1,1,1v2.581a1,1,0,0,1-1,1Z" transform="translate(-36.139 -55.4)" fill="#081b3d"/>
    <path id="Trazado_67" data-name="Trazado 67" d="M192.4,274.218a9.16,9.16,0,0,1-4.205-.874,5.562,5.562,0,0,1-2.54-2.6,9.9,9.9,0,0,1-.832-4.31v-9.452h-3.29a.994.994,0,0,1-1-1v-2.416a.994.994,0,0,1,1-1h3.29v-6.913a1,1,0,0,1,.27-.708.947.947,0,0,1,.729-.291H189.2a.993.993,0,0,1,1,1v6.913H195.4a.994.994,0,0,1,1,1v2.416a.994.994,0,0,1-1,1H190.2v9.036a4.979,4.979,0,0,0,.6,2.665,2.287,2.287,0,0,0,2.1.958h2.873a1,1,0,0,1,1,1v2.581a1,1,0,0,1-1,1Z" transform="translate(-40.881 -55.4)" fill="#081b3d"/>
    <path id="Trazado_68" data-name="Trazado 68" d="M213.488,276.828a12.168,12.168,0,0,1-5.6-1.166,8.082,8.082,0,0,1-3.456-3.29,11.385,11.385,0,0,1-1.353-4.955q-.043-.75-.042-1.832t.042-1.833a10.982,10.982,0,0,1,1.395-4.976,8.384,8.384,0,0,1,3.5-3.268,13.638,13.638,0,0,1,11.034,0,8.4,8.4,0,0,1,3.5,3.268,11,11,0,0,1,1.4,4.976q.041.749.042,1.833t-.042,1.832a11.4,11.4,0,0,1-1.354,4.955,8.079,8.079,0,0,1-3.455,3.29,12.175,12.175,0,0,1-5.6,1.166m0-4.122a4.276,4.276,0,0,0,3.415-1.395,6.6,6.6,0,0,0,1.332-4.1q.042-.624.042-1.624t-.042-1.624a6.627,6.627,0,0,0-1.332-4.081,4.826,4.826,0,0,0-6.829,0,6.622,6.622,0,0,0-1.333,4.081q-.042.624-.042,1.624t.042,1.624a6.59,6.59,0,0,0,1.333,4.1,4.272,4.272,0,0,0,3.415,1.395" transform="translate(-45.976 -57.594)" fill="#081b3d"/>
    <path id="Trazado_69" data-name="Trazado 69" d="M94.551,103.326l-39.594,63.36-.05.089,0,0a21.319,21.319,0,0,1-29.241,6.686l-.088-.052h0l0,0a21.321,21.321,0,0,1-6.687-29.242l.866-1.387a26.083,26.083,0,0,0,2.687,2.028,3.342,3.342,0,0,0,.3.217v0l0,0c.1.066.2.125.3.185l.087.049q.94.578,1.912,1.069l-.753,1.2a14.947,14.947,0,0,0,4.73,20.53l.087.049h0v0a14.952,14.952,0,0,0,20.442-4.782l.05-.089v0l0,0,42.242-67.6,2.7-4.323,2.7,4.323,42.087,67.355.207.333a14.951,14.951,0,0,0,20.518,4.735l.013-.007a14.947,14.947,0,0,0,4.73-20.53L107.323,55.53a14.734,14.734,0,0,0-5.377-5.1,15.122,15.122,0,0,0-7.275-1.889h-.009v.012h-.224v-.012h-.008a15.111,15.111,0,0,0-7.275,1.889,14.738,14.738,0,0,0-5.379,5.1l-47.865,76.6a9.986,9.986,0,0,1-1.969-.894l0,0h0l-.107-.064c-.063-.038-.126-.078-.192-.114l-.059-.035a9.618,9.618,0,0,1-2.626-2.506l-.15-.22L76.374,52.168a21.125,21.125,0,0,1,7.719-7.315,21.471,21.471,0,0,1,10.2-2.659v0H94.3l.136-.014h.224l.138.014h.007v0a21.469,21.469,0,0,1,10.2,2.659,21.129,21.129,0,0,1,7.721,7.315l57.483,92a21.321,21.321,0,0,1-6.425,29.073l-.016.012-.332.21a21.32,21.32,0,0,1-29.074-6.426l-.013-.015-.207-.332Z" transform="translate(-3.55 -9.551)" fill="#081b3d"/>
    <path id="Trazado_70" data-name="Trazado 70" d="M94.551,61.146,54.957,124.505l-.05.089h0a21.321,21.321,0,0,1-29.241,6.686l-.088-.05h0l0,0a21.321,21.321,0,0,1-6.687-29.242L76.374,9.989a21.125,21.125,0,0,1,7.719-7.315A21.482,21.482,0,0,1,94.293.013H94.3L94.439,0h.224L94.8.013h.007a21.479,21.479,0,0,1,10.2,2.661,21.129,21.129,0,0,1,7.721,7.315l57.483,91.995a21.171,21.171,0,0,1,2.66,16.031,21.415,21.415,0,0,1-2.825,6.729l-3.93-6.292a15.156,15.156,0,0,0,.555-1.855,14.872,14.872,0,0,0-1.864-11.251L107.323,13.351a14.721,14.721,0,0,0-5.377-5.1,15.131,15.131,0,0,0-7.275-1.889h-.009v.012h-.224V6.363h-.008a15.119,15.119,0,0,0-7.275,1.889,14.725,14.725,0,0,0-5.379,5.1L24.293,105.346a14.945,14.945,0,0,0,4.73,20.529l.087.052h0v0a14.94,14.94,0,0,0,20.442-4.783l.05-.086v0l0,0L91.85,53.46l2.7-4.325,2.7,4.325,42.087,67.351.207.335a14.867,14.867,0,0,0,9.278,6.6,15.343,15.343,0,0,0,3.823.381l3.726,5.962a21.372,21.372,0,0,1-22.01-9.232l-.013-.014-.207-.334Z" transform="translate(-3.55)" fill="#00c997"/>
  </g>
</svg>
